<mxfile host="app.diagrams.net" modified="2023-01-13T11:54:56.167Z" agent="5.0 (Windows)" etag="cHchrksxjXN2CsPxa8gK" version="20.8.3" type="github">
  <diagram id="R7GWoLs2vNekm2l1NwD5" name="Page-1">
    <mxGraphModel dx="3452" dy="2564" grid="1" gridSize="10" guides="1" tooltips="1" connect="1" arrows="1" fold="1" page="1" pageScale="1" pageWidth="827" pageHeight="1169" math="0" shadow="0">
      <root>
        <mxCell id="0" />
        <mxCell id="1" parent="0" />
        <mxCell id="z7foghyVsHtjKupNQYj4-2" value="&lt;div&gt;Asia&lt;/div&gt;&lt;div&gt;&lt;br&gt;&lt;/div&gt;" style="points=[[0,0],[0.25,0],[0.5,0],[0.75,0],[1,0],[1,0.25],[1,0.5],[1,0.75],[1,1],[0.75,1],[0.5,1],[0.25,1],[0,1],[0,0.75],[0,0.5],[0,0.25]];outlineConnect=0;gradientColor=none;html=1;whiteSpace=wrap;fontSize=12;fontStyle=0;container=1;pointerEvents=0;collapsible=0;recursiveResize=0;shape=mxgraph.aws4.group;grIcon=mxgraph.aws4.group_region;strokeColor=#147EBA;fillColor=none;verticalAlign=top;align=left;spacingLeft=30;fontColor=#147EBA;dashed=1;" parent="1" vertex="1">
          <mxGeometry x="80" y="-110" width="600" height="510" as="geometry" />
        </mxCell>
        <mxCell id="z7foghyVsHtjKupNQYj4-139" value="" style="edgeStyle=orthogonalEdgeStyle;rounded=0;orthogonalLoop=1;jettySize=auto;html=1;entryX=0.5;entryY=0;entryDx=0;entryDy=0;entryPerimeter=0;" parent="z7foghyVsHtjKupNQYj4-2" source="z7foghyVsHtjKupNQYj4-52" target="z7foghyVsHtjKupNQYj4-170" edge="1">
          <mxGeometry relative="1" as="geometry">
            <mxPoint x="313.02857142857147" y="340" as="targetPoint" />
          </mxGeometry>
        </mxCell>
        <mxCell id="z7foghyVsHtjKupNQYj4-52" value="" style="sketch=0;points=[[0,0,0],[0.25,0,0],[0.5,0,0],[0.75,0,0],[1,0,0],[0,1,0],[0.25,1,0],[0.5,1,0],[0.75,1,0],[1,1,0],[0,0.25,0],[0,0.5,0],[0,0.75,0],[1,0.25,0],[1,0.5,0],[1,0.75,0]];outlineConnect=0;fontColor=#232F3E;gradientColor=#945DF2;gradientDirection=north;fillColor=#5A30B5;strokeColor=#ffffff;dashed=0;verticalLabelPosition=bottom;verticalAlign=top;align=center;html=1;fontSize=12;fontStyle=0;aspect=fixed;shape=mxgraph.aws4.resourceIcon;resIcon=mxgraph.aws4.elastic_load_balancing;" parent="z7foghyVsHtjKupNQYj4-2" vertex="1">
          <mxGeometry x="297" y="185" width="25" height="25" as="geometry" />
        </mxCell>
        <mxCell id="z7foghyVsHtjKupNQYj4-25" value="Asia_r2" style="points=[[0,0],[0.25,0],[0.5,0],[0.75,0],[1,0],[1,0.25],[1,0.5],[1,0.75],[1,1],[0.75,1],[0.5,1],[0.25,1],[0,1],[0,0.75],[0,0.5],[0,0.25]];outlineConnect=0;gradientColor=none;html=1;whiteSpace=wrap;fontSize=12;fontStyle=0;container=1;pointerEvents=0;collapsible=0;recursiveResize=0;shape=mxgraph.aws4.group;grIcon=mxgraph.aws4.group_region;strokeColor=#147EBA;fillColor=none;verticalAlign=top;align=left;spacingLeft=30;fontColor=#147EBA;dashed=1;" parent="z7foghyVsHtjKupNQYj4-2" vertex="1">
          <mxGeometry x="220" y="280" width="140" height="220" as="geometry" />
        </mxCell>
        <mxCell id="z7foghyVsHtjKupNQYj4-165" value="" style="sketch=0;outlineConnect=0;fontColor=#232F3E;gradientColor=none;fillColor=#D45B07;strokeColor=none;dashed=0;verticalLabelPosition=bottom;verticalAlign=top;align=center;html=1;fontSize=12;fontStyle=0;aspect=fixed;pointerEvents=1;shape=mxgraph.aws4.ec2_c6gn_instance;" parent="z7foghyVsHtjKupNQYj4-25" vertex="1">
          <mxGeometry x="75" y="88" width="30" height="30" as="geometry" />
        </mxCell>
        <mxCell id="z7foghyVsHtjKupNQYj4-166" value="" style="sketch=0;points=[[0,0,0],[0.25,0,0],[0.5,0,0],[0.75,0,0],[1,0,0],[0,1,0],[0.25,1,0],[0.5,1,0],[0.75,1,0],[1,1,0],[0,0.25,0],[0,0.5,0],[0,0.75,0],[1,0.25,0],[1,0.5,0],[1,0.75,0]];outlineConnect=0;fontColor=#232F3E;gradientColor=#4D72F3;gradientDirection=north;fillColor=#3334B9;strokeColor=#ffffff;dashed=0;verticalLabelPosition=bottom;verticalAlign=top;align=center;html=1;fontSize=12;fontStyle=0;aspect=fixed;shape=mxgraph.aws4.resourceIcon;resIcon=mxgraph.aws4.aurora;" parent="z7foghyVsHtjKupNQYj4-25" vertex="1">
          <mxGeometry x="77" y="154" width="28" height="28" as="geometry" />
        </mxCell>
        <mxCell id="z7foghyVsHtjKupNQYj4-161" value="" style="edgeStyle=orthogonalEdgeStyle;rounded=0;orthogonalLoop=1;jettySize=auto;html=1;" parent="z7foghyVsHtjKupNQYj4-25" source="z7foghyVsHtjKupNQYj4-165" target="z7foghyVsHtjKupNQYj4-166" edge="1">
          <mxGeometry relative="1" as="geometry" />
        </mxCell>
        <mxCell id="z7foghyVsHtjKupNQYj4-162" value="" style="edgeStyle=orthogonalEdgeStyle;rounded=0;orthogonalLoop=1;jettySize=auto;html=1;" parent="z7foghyVsHtjKupNQYj4-25" source="z7foghyVsHtjKupNQYj4-165" target="z7foghyVsHtjKupNQYj4-166" edge="1">
          <mxGeometry relative="1" as="geometry" />
        </mxCell>
        <mxCell id="z7foghyVsHtjKupNQYj4-163" value="" style="edgeStyle=orthogonalEdgeStyle;rounded=0;orthogonalLoop=1;jettySize=auto;html=1;" parent="z7foghyVsHtjKupNQYj4-25" source="z7foghyVsHtjKupNQYj4-165" target="z7foghyVsHtjKupNQYj4-166" edge="1">
          <mxGeometry relative="1" as="geometry" />
        </mxCell>
        <mxCell id="z7foghyVsHtjKupNQYj4-164" value="" style="edgeStyle=orthogonalEdgeStyle;rounded=0;orthogonalLoop=1;jettySize=auto;html=1;" parent="z7foghyVsHtjKupNQYj4-25" source="z7foghyVsHtjKupNQYj4-165" target="z7foghyVsHtjKupNQYj4-166" edge="1">
          <mxGeometry relative="1" as="geometry" />
        </mxCell>
        <mxCell id="z7foghyVsHtjKupNQYj4-167" value="" style="sketch=0;points=[[0,0,0],[0.25,0,0],[0.5,0,0],[0.75,0,0],[1,0,0],[0,1,0],[0.25,1,0],[0.5,1,0],[0.75,1,0],[1,1,0],[0,0.25,0],[0,0.5,0],[0,0.75,0],[1,0.25,0],[1,0.5,0],[1,0.75,0]];outlineConnect=0;fontColor=#232F3E;gradientColor=#4D72F3;gradientDirection=north;fillColor=#3334B9;strokeColor=#ffffff;dashed=0;verticalLabelPosition=bottom;verticalAlign=top;align=center;html=1;fontSize=12;fontStyle=0;aspect=fixed;shape=mxgraph.aws4.resourceIcon;resIcon=mxgraph.aws4.elasticache;" parent="z7foghyVsHtjKupNQYj4-25" vertex="1">
          <mxGeometry x="27" y="154" width="28" height="28" as="geometry" />
        </mxCell>
        <mxCell id="z7foghyVsHtjKupNQYj4-168" value="" style="edgeStyle=orthogonalEdgeStyle;rounded=0;orthogonalLoop=1;jettySize=auto;html=1;" parent="z7foghyVsHtjKupNQYj4-25" source="z7foghyVsHtjKupNQYj4-165" target="z7foghyVsHtjKupNQYj4-167" edge="1">
          <mxGeometry relative="1" as="geometry" />
        </mxCell>
        <mxCell id="z7foghyVsHtjKupNQYj4-169" style="edgeStyle=orthogonalEdgeStyle;rounded=0;orthogonalLoop=1;jettySize=auto;html=1;" parent="z7foghyVsHtjKupNQYj4-25" source="z7foghyVsHtjKupNQYj4-170" target="z7foghyVsHtjKupNQYj4-165" edge="1">
          <mxGeometry relative="1" as="geometry" />
        </mxCell>
        <mxCell id="z7foghyVsHtjKupNQYj4-170" value="" style="sketch=0;points=[[0,0,0],[0.25,0,0],[0.5,0,0],[0.75,0,0],[1,0,0],[0,1,0],[0.25,1,0],[0.5,1,0],[0.75,1,0],[1,1,0],[0,0.25,0],[0,0.5,0],[0,0.75,0],[1,0.25,0],[1,0.5,0],[1,0.75,0]];outlineConnect=0;fontColor=#232F3E;gradientColor=#945DF2;gradientDirection=north;fillColor=#5A30B5;strokeColor=#ffffff;dashed=0;verticalLabelPosition=bottom;verticalAlign=top;align=center;html=1;fontSize=12;fontStyle=0;aspect=fixed;shape=mxgraph.aws4.resourceIcon;resIcon=mxgraph.aws4.route_53;" parent="z7foghyVsHtjKupNQYj4-25" vertex="1">
          <mxGeometry x="77" y="38" width="25" height="25" as="geometry" />
        </mxCell>
        <mxCell id="z7foghyVsHtjKupNQYj4-182" value="VPC" style="sketch=0;outlineConnect=0;gradientColor=none;html=1;whiteSpace=wrap;fontSize=12;fontStyle=0;shape=mxgraph.aws4.group;grIcon=mxgraph.aws4.group_vpc;strokeColor=#879196;fillColor=none;verticalAlign=top;align=left;spacingLeft=30;fontColor=#879196;dashed=0;" parent="z7foghyVsHtjKupNQYj4-25" vertex="1">
          <mxGeometry x="5" y="30" width="130" height="180" as="geometry" />
        </mxCell>
        <mxCell id="z7foghyVsHtjKupNQYj4-78" value="" style="edgeStyle=orthogonalEdgeStyle;rounded=0;orthogonalLoop=1;jettySize=auto;html=1;" parent="z7foghyVsHtjKupNQYj4-2" source="z7foghyVsHtjKupNQYj4-49" target="z7foghyVsHtjKupNQYj4-52" edge="1">
          <mxGeometry relative="1" as="geometry" />
        </mxCell>
        <mxCell id="z7foghyVsHtjKupNQYj4-49" value="" style="sketch=0;points=[[0,0,0],[0.25,0,0],[0.5,0,0],[0.75,0,0],[1,0,0],[0,1,0],[0.25,1,0],[0.5,1,0],[0.75,1,0],[1,1,0],[0,0.25,0],[0,0.5,0],[0,0.75,0],[1,0.25,0],[1,0.5,0],[1,0.75,0]];outlineConnect=0;fontColor=#232F3E;gradientColor=#945DF2;gradientDirection=north;fillColor=#5A30B5;strokeColor=#ffffff;dashed=0;verticalLabelPosition=bottom;verticalAlign=top;align=center;html=1;fontSize=12;fontStyle=0;aspect=fixed;shape=mxgraph.aws4.resourceIcon;resIcon=mxgraph.aws4.route_53;" parent="z7foghyVsHtjKupNQYj4-2" vertex="1">
          <mxGeometry x="297" y="140" width="25" height="25" as="geometry" />
        </mxCell>
        <mxCell id="z7foghyVsHtjKupNQYj4-118" value="Asia_r1" style="points=[[0,0],[0.25,0],[0.5,0],[0.75,0],[1,0],[1,0.25],[1,0.5],[1,0.75],[1,1],[0.75,1],[0.5,1],[0.25,1],[0,1],[0,0.75],[0,0.5],[0,0.25]];outlineConnect=0;gradientColor=none;html=1;whiteSpace=wrap;fontSize=12;fontStyle=0;container=1;pointerEvents=0;collapsible=0;recursiveResize=0;shape=mxgraph.aws4.group;grIcon=mxgraph.aws4.group_region;strokeColor=#147EBA;fillColor=none;verticalAlign=top;align=left;spacingLeft=30;fontColor=#147EBA;dashed=1;" parent="z7foghyVsHtjKupNQYj4-2" vertex="1">
          <mxGeometry x="50" y="280" width="140" height="220" as="geometry" />
        </mxCell>
        <mxCell id="z7foghyVsHtjKupNQYj4-121" value="" style="edgeStyle=orthogonalEdgeStyle;rounded=0;orthogonalLoop=1;jettySize=auto;html=1;" parent="z7foghyVsHtjKupNQYj4-118" source="z7foghyVsHtjKupNQYj4-126" target="z7foghyVsHtjKupNQYj4-127" edge="1">
          <mxGeometry relative="1" as="geometry" />
        </mxCell>
        <mxCell id="z7foghyVsHtjKupNQYj4-122" value="" style="edgeStyle=orthogonalEdgeStyle;rounded=0;orthogonalLoop=1;jettySize=auto;html=1;" parent="z7foghyVsHtjKupNQYj4-118" source="z7foghyVsHtjKupNQYj4-126" target="z7foghyVsHtjKupNQYj4-127" edge="1">
          <mxGeometry relative="1" as="geometry" />
        </mxCell>
        <mxCell id="z7foghyVsHtjKupNQYj4-123" value="" style="edgeStyle=orthogonalEdgeStyle;rounded=0;orthogonalLoop=1;jettySize=auto;html=1;" parent="z7foghyVsHtjKupNQYj4-118" source="z7foghyVsHtjKupNQYj4-126" target="z7foghyVsHtjKupNQYj4-127" edge="1">
          <mxGeometry relative="1" as="geometry" />
        </mxCell>
        <mxCell id="z7foghyVsHtjKupNQYj4-124" value="" style="edgeStyle=orthogonalEdgeStyle;rounded=0;orthogonalLoop=1;jettySize=auto;html=1;" parent="z7foghyVsHtjKupNQYj4-118" source="z7foghyVsHtjKupNQYj4-126" target="z7foghyVsHtjKupNQYj4-127" edge="1">
          <mxGeometry relative="1" as="geometry" />
        </mxCell>
        <mxCell id="z7foghyVsHtjKupNQYj4-126" value="" style="sketch=0;outlineConnect=0;fontColor=#232F3E;gradientColor=none;fillColor=#D45B07;strokeColor=none;dashed=0;verticalLabelPosition=bottom;verticalAlign=top;align=center;html=1;fontSize=12;fontStyle=0;aspect=fixed;pointerEvents=1;shape=mxgraph.aws4.ec2_c6gn_instance;" parent="z7foghyVsHtjKupNQYj4-118" vertex="1">
          <mxGeometry x="78" y="88" width="30" height="30" as="geometry" />
        </mxCell>
        <mxCell id="z7foghyVsHtjKupNQYj4-127" value="" style="sketch=0;points=[[0,0,0],[0.25,0,0],[0.5,0,0],[0.75,0,0],[1,0,0],[0,1,0],[0.25,1,0],[0.5,1,0],[0.75,1,0],[1,1,0],[0,0.25,0],[0,0.5,0],[0,0.75,0],[1,0.25,0],[1,0.5,0],[1,0.75,0]];outlineConnect=0;fontColor=#232F3E;gradientColor=#4D72F3;gradientDirection=north;fillColor=#3334B9;strokeColor=#ffffff;dashed=0;verticalLabelPosition=bottom;verticalAlign=top;align=center;html=1;fontSize=12;fontStyle=0;aspect=fixed;shape=mxgraph.aws4.resourceIcon;resIcon=mxgraph.aws4.aurora;" parent="z7foghyVsHtjKupNQYj4-118" vertex="1">
          <mxGeometry x="80" y="154" width="28" height="28" as="geometry" />
        </mxCell>
        <mxCell id="z7foghyVsHtjKupNQYj4-120" value="" style="sketch=0;points=[[0,0,0],[0.25,0,0],[0.5,0,0],[0.75,0,0],[1,0,0],[0,1,0],[0.25,1,0],[0.5,1,0],[0.75,1,0],[1,1,0],[0,0.25,0],[0,0.5,0],[0,0.75,0],[1,0.25,0],[1,0.5,0],[1,0.75,0]];outlineConnect=0;fontColor=#232F3E;gradientColor=#4D72F3;gradientDirection=north;fillColor=#3334B9;strokeColor=#ffffff;dashed=0;verticalLabelPosition=bottom;verticalAlign=top;align=center;html=1;fontSize=12;fontStyle=0;aspect=fixed;shape=mxgraph.aws4.resourceIcon;resIcon=mxgraph.aws4.elasticache;" parent="z7foghyVsHtjKupNQYj4-118" vertex="1">
          <mxGeometry x="30" y="154" width="28" height="28" as="geometry" />
        </mxCell>
        <mxCell id="z7foghyVsHtjKupNQYj4-125" value="" style="edgeStyle=orthogonalEdgeStyle;rounded=0;orthogonalLoop=1;jettySize=auto;html=1;" parent="z7foghyVsHtjKupNQYj4-118" source="z7foghyVsHtjKupNQYj4-126" target="z7foghyVsHtjKupNQYj4-120" edge="1">
          <mxGeometry relative="1" as="geometry" />
        </mxCell>
        <mxCell id="z7foghyVsHtjKupNQYj4-149" style="edgeStyle=orthogonalEdgeStyle;rounded=0;orthogonalLoop=1;jettySize=auto;html=1;" parent="z7foghyVsHtjKupNQYj4-118" source="z7foghyVsHtjKupNQYj4-141" target="z7foghyVsHtjKupNQYj4-126" edge="1">
          <mxGeometry relative="1" as="geometry" />
        </mxCell>
        <mxCell id="z7foghyVsHtjKupNQYj4-141" value="" style="sketch=0;points=[[0,0,0],[0.25,0,0],[0.5,0,0],[0.75,0,0],[1,0,0],[0,1,0],[0.25,1,0],[0.5,1,0],[0.75,1,0],[1,1,0],[0,0.25,0],[0,0.5,0],[0,0.75,0],[1,0.25,0],[1,0.5,0],[1,0.75,0]];outlineConnect=0;fontColor=#232F3E;gradientColor=#945DF2;gradientDirection=north;fillColor=#5A30B5;strokeColor=#ffffff;dashed=0;verticalLabelPosition=bottom;verticalAlign=top;align=center;html=1;fontSize=12;fontStyle=0;aspect=fixed;shape=mxgraph.aws4.resourceIcon;resIcon=mxgraph.aws4.route_53;" parent="z7foghyVsHtjKupNQYj4-118" vertex="1">
          <mxGeometry x="80" y="38" width="25" height="25" as="geometry" />
        </mxCell>
        <mxCell id="z7foghyVsHtjKupNQYj4-181" value="VPC" style="sketch=0;outlineConnect=0;gradientColor=none;html=1;whiteSpace=wrap;fontSize=12;fontStyle=0;shape=mxgraph.aws4.group;grIcon=mxgraph.aws4.group_vpc;strokeColor=#879196;fillColor=none;verticalAlign=top;align=left;spacingLeft=30;fontColor=#879196;dashed=0;" parent="z7foghyVsHtjKupNQYj4-118" vertex="1">
          <mxGeometry x="5" y="30" width="130" height="180" as="geometry" />
        </mxCell>
        <mxCell id="z7foghyVsHtjKupNQYj4-138" value="" style="edgeStyle=orthogonalEdgeStyle;rounded=0;orthogonalLoop=1;jettySize=auto;html=1;entryX=0.5;entryY=0;entryDx=0;entryDy=0;entryPerimeter=0;" parent="z7foghyVsHtjKupNQYj4-2" source="z7foghyVsHtjKupNQYj4-52" target="z7foghyVsHtjKupNQYj4-141" edge="1">
          <mxGeometry relative="1" as="geometry" />
        </mxCell>
        <mxCell id="z7foghyVsHtjKupNQYj4-128" value="Asia_r3" style="points=[[0,0],[0.25,0],[0.5,0],[0.75,0],[1,0],[1,0.25],[1,0.5],[1,0.75],[1,1],[0.75,1],[0.5,1],[0.25,1],[0,1],[0,0.75],[0,0.5],[0,0.25]];outlineConnect=0;gradientColor=none;html=1;whiteSpace=wrap;fontSize=12;fontStyle=0;container=1;pointerEvents=0;collapsible=0;recursiveResize=0;shape=mxgraph.aws4.group;grIcon=mxgraph.aws4.group_region;strokeColor=#147EBA;fillColor=none;verticalAlign=top;align=left;spacingLeft=30;fontColor=#147EBA;dashed=1;" parent="z7foghyVsHtjKupNQYj4-2" vertex="1">
          <mxGeometry x="390" y="280" width="140" height="220" as="geometry" />
        </mxCell>
        <mxCell id="z7foghyVsHtjKupNQYj4-171" value="" style="sketch=0;outlineConnect=0;fontColor=#232F3E;gradientColor=none;fillColor=#D45B07;strokeColor=none;dashed=0;verticalLabelPosition=bottom;verticalAlign=top;align=center;html=1;fontSize=12;fontStyle=0;aspect=fixed;pointerEvents=1;shape=mxgraph.aws4.ec2_c6gn_instance;" parent="z7foghyVsHtjKupNQYj4-128" vertex="1">
          <mxGeometry x="79" y="88" width="30" height="30" as="geometry" />
        </mxCell>
        <mxCell id="z7foghyVsHtjKupNQYj4-172" value="" style="sketch=0;points=[[0,0,0],[0.25,0,0],[0.5,0,0],[0.75,0,0],[1,0,0],[0,1,0],[0.25,1,0],[0.5,1,0],[0.75,1,0],[1,1,0],[0,0.25,0],[0,0.5,0],[0,0.75,0],[1,0.25,0],[1,0.5,0],[1,0.75,0]];outlineConnect=0;fontColor=#232F3E;gradientColor=#4D72F3;gradientDirection=north;fillColor=#3334B9;strokeColor=#ffffff;dashed=0;verticalLabelPosition=bottom;verticalAlign=top;align=center;html=1;fontSize=12;fontStyle=0;aspect=fixed;shape=mxgraph.aws4.resourceIcon;resIcon=mxgraph.aws4.aurora;" parent="z7foghyVsHtjKupNQYj4-128" vertex="1">
          <mxGeometry x="81" y="154" width="28" height="28" as="geometry" />
        </mxCell>
        <mxCell id="z7foghyVsHtjKupNQYj4-173" value="" style="edgeStyle=orthogonalEdgeStyle;rounded=0;orthogonalLoop=1;jettySize=auto;html=1;" parent="z7foghyVsHtjKupNQYj4-128" source="z7foghyVsHtjKupNQYj4-171" target="z7foghyVsHtjKupNQYj4-172" edge="1">
          <mxGeometry relative="1" as="geometry" />
        </mxCell>
        <mxCell id="z7foghyVsHtjKupNQYj4-174" value="" style="edgeStyle=orthogonalEdgeStyle;rounded=0;orthogonalLoop=1;jettySize=auto;html=1;" parent="z7foghyVsHtjKupNQYj4-128" source="z7foghyVsHtjKupNQYj4-171" target="z7foghyVsHtjKupNQYj4-172" edge="1">
          <mxGeometry relative="1" as="geometry" />
        </mxCell>
        <mxCell id="z7foghyVsHtjKupNQYj4-175" value="" style="edgeStyle=orthogonalEdgeStyle;rounded=0;orthogonalLoop=1;jettySize=auto;html=1;" parent="z7foghyVsHtjKupNQYj4-128" source="z7foghyVsHtjKupNQYj4-171" target="z7foghyVsHtjKupNQYj4-172" edge="1">
          <mxGeometry relative="1" as="geometry" />
        </mxCell>
        <mxCell id="z7foghyVsHtjKupNQYj4-176" value="" style="edgeStyle=orthogonalEdgeStyle;rounded=0;orthogonalLoop=1;jettySize=auto;html=1;" parent="z7foghyVsHtjKupNQYj4-128" source="z7foghyVsHtjKupNQYj4-171" target="z7foghyVsHtjKupNQYj4-172" edge="1">
          <mxGeometry relative="1" as="geometry" />
        </mxCell>
        <mxCell id="z7foghyVsHtjKupNQYj4-177" value="" style="sketch=0;points=[[0,0,0],[0.25,0,0],[0.5,0,0],[0.75,0,0],[1,0,0],[0,1,0],[0.25,1,0],[0.5,1,0],[0.75,1,0],[1,1,0],[0,0.25,0],[0,0.5,0],[0,0.75,0],[1,0.25,0],[1,0.5,0],[1,0.75,0]];outlineConnect=0;fontColor=#232F3E;gradientColor=#4D72F3;gradientDirection=north;fillColor=#3334B9;strokeColor=#ffffff;dashed=0;verticalLabelPosition=bottom;verticalAlign=top;align=center;html=1;fontSize=12;fontStyle=0;aspect=fixed;shape=mxgraph.aws4.resourceIcon;resIcon=mxgraph.aws4.elasticache;" parent="z7foghyVsHtjKupNQYj4-128" vertex="1">
          <mxGeometry x="31" y="154" width="28" height="28" as="geometry" />
        </mxCell>
        <mxCell id="z7foghyVsHtjKupNQYj4-178" value="" style="edgeStyle=orthogonalEdgeStyle;rounded=0;orthogonalLoop=1;jettySize=auto;html=1;" parent="z7foghyVsHtjKupNQYj4-128" source="z7foghyVsHtjKupNQYj4-171" target="z7foghyVsHtjKupNQYj4-177" edge="1">
          <mxGeometry relative="1" as="geometry" />
        </mxCell>
        <mxCell id="z7foghyVsHtjKupNQYj4-179" style="edgeStyle=orthogonalEdgeStyle;rounded=0;orthogonalLoop=1;jettySize=auto;html=1;" parent="z7foghyVsHtjKupNQYj4-128" source="z7foghyVsHtjKupNQYj4-180" target="z7foghyVsHtjKupNQYj4-171" edge="1">
          <mxGeometry relative="1" as="geometry" />
        </mxCell>
        <mxCell id="z7foghyVsHtjKupNQYj4-180" value="" style="sketch=0;points=[[0,0,0],[0.25,0,0],[0.5,0,0],[0.75,0,0],[1,0,0],[0,1,0],[0.25,1,0],[0.5,1,0],[0.75,1,0],[1,1,0],[0,0.25,0],[0,0.5,0],[0,0.75,0],[1,0.25,0],[1,0.5,0],[1,0.75,0]];outlineConnect=0;fontColor=#232F3E;gradientColor=#945DF2;gradientDirection=north;fillColor=#5A30B5;strokeColor=#ffffff;dashed=0;verticalLabelPosition=bottom;verticalAlign=top;align=center;html=1;fontSize=12;fontStyle=0;aspect=fixed;shape=mxgraph.aws4.resourceIcon;resIcon=mxgraph.aws4.route_53;" parent="z7foghyVsHtjKupNQYj4-128" vertex="1">
          <mxGeometry x="81" y="38" width="25" height="25" as="geometry" />
        </mxCell>
        <mxCell id="z7foghyVsHtjKupNQYj4-183" value="VPC" style="sketch=0;outlineConnect=0;gradientColor=none;html=1;whiteSpace=wrap;fontSize=12;fontStyle=1;shape=mxgraph.aws4.group;grIcon=mxgraph.aws4.group_vpc;strokeColor=#879196;fillColor=none;verticalAlign=top;align=left;spacingLeft=30;fontColor=#879196;dashed=0;" parent="z7foghyVsHtjKupNQYj4-128" vertex="1">
          <mxGeometry x="10" y="30" width="120" height="180" as="geometry" />
        </mxCell>
        <mxCell id="z7foghyVsHtjKupNQYj4-140" style="edgeStyle=orthogonalEdgeStyle;rounded=0;orthogonalLoop=1;jettySize=auto;html=1;" parent="z7foghyVsHtjKupNQYj4-2" source="z7foghyVsHtjKupNQYj4-52" target="z7foghyVsHtjKupNQYj4-180" edge="1">
          <mxGeometry relative="1" as="geometry">
            <mxPoint x="483" y="350" as="targetPoint" />
          </mxGeometry>
        </mxCell>
        <mxCell id="z7foghyVsHtjKupNQYj4-185" style="edgeStyle=orthogonalEdgeStyle;rounded=0;orthogonalLoop=1;jettySize=auto;html=1;entryX=0.5;entryY=0;entryDx=0;entryDy=0;entryPerimeter=0;" parent="z7foghyVsHtjKupNQYj4-2" source="z7foghyVsHtjKupNQYj4-184" target="z7foghyVsHtjKupNQYj4-49" edge="1">
          <mxGeometry relative="1" as="geometry" />
        </mxCell>
        <mxCell id="z7foghyVsHtjKupNQYj4-184" value="" style="sketch=0;outlineConnect=0;fontColor=#232F3E;gradientColor=none;fillColor=#4D27AA;strokeColor=none;dashed=0;verticalLabelPosition=bottom;verticalAlign=top;align=center;html=1;fontSize=12;fontStyle=0;aspect=fixed;pointerEvents=1;shape=mxgraph.aws4.internet_gateway;" parent="z7foghyVsHtjKupNQYj4-2" vertex="1">
          <mxGeometry x="294.5" y="90" width="30" height="30" as="geometry" />
        </mxCell>
        <mxCell id="z7foghyVsHtjKupNQYj4-219" value="" style="edgeStyle=orthogonalEdgeStyle;rounded=0;orthogonalLoop=1;jettySize=auto;html=1;entryX=0.5;entryY=0;entryDx=0;entryDy=0;entryPerimeter=0;" parent="1" source="z7foghyVsHtjKupNQYj4-195" target="z7foghyVsHtjKupNQYj4-196" edge="1">
          <mxGeometry relative="1" as="geometry">
            <Array as="points">
              <mxPoint x="343" y="-449" />
            </Array>
          </mxGeometry>
        </mxCell>
        <mxCell id="z7foghyVsHtjKupNQYj4-195" value="" style="sketch=0;outlineConnect=0;fontColor=#232F3E;gradientColor=none;fillColor=#4D27AA;strokeColor=none;dashed=0;verticalLabelPosition=bottom;verticalAlign=top;align=center;html=1;fontSize=12;fontStyle=0;aspect=fixed;pointerEvents=1;shape=mxgraph.aws4.router;" parent="1" vertex="1">
          <mxGeometry x="280" y="-469" width="39" height="39" as="geometry" />
        </mxCell>
        <mxCell id="z7foghyVsHtjKupNQYj4-221" style="edgeStyle=orthogonalEdgeStyle;rounded=0;orthogonalLoop=1;jettySize=auto;html=1;" parent="1" source="z7foghyVsHtjKupNQYj4-196" edge="1">
          <mxGeometry relative="1" as="geometry">
            <mxPoint x="390" y="-349.99909097107" as="targetPoint" />
          </mxGeometry>
        </mxCell>
        <mxCell id="z7foghyVsHtjKupNQYj4-196" value="" style="sketch=0;points=[[0,0,0],[0.25,0,0],[0.5,0,0],[0.75,0,0],[1,0,0],[0,1,0],[0.25,1,0],[0.5,1,0],[0.75,1,0],[1,1,0],[0,0.25,0],[0,0.5,0],[0,0.75,0],[1,0.25,0],[1,0.5,0],[1,0.75,0]];outlineConnect=0;fontColor=#232F3E;gradientColor=#945DF2;gradientDirection=north;fillColor=#5A30B5;strokeColor=#ffffff;dashed=0;verticalLabelPosition=bottom;verticalAlign=top;align=center;html=1;fontSize=12;fontStyle=0;aspect=fixed;shape=mxgraph.aws4.resourceIcon;resIcon=mxgraph.aws4.direct_connect;" parent="1" vertex="1">
          <mxGeometry x="319" y="-420" width="48" height="48" as="geometry" />
        </mxCell>
        <mxCell id="z7foghyVsHtjKupNQYj4-191" style="edgeStyle=orthogonalEdgeStyle;rounded=0;orthogonalLoop=1;jettySize=auto;html=1;" parent="1" source="z7foghyVsHtjKupNQYj4-188" target="z7foghyVsHtjKupNQYj4-187" edge="1">
          <mxGeometry relative="1" as="geometry" />
        </mxCell>
        <mxCell id="z7foghyVsHtjKupNQYj4-197" value="AWS Cloud" style="points=[[0,0],[0.25,0],[0.5,0],[0.75,0],[1,0],[1,0.25],[1,0.5],[1,0.75],[1,1],[0.75,1],[0.5,1],[0.25,1],[0,1],[0,0.75],[0,0.5],[0,0.25]];outlineConnect=0;gradientColor=none;html=1;whiteSpace=wrap;fontSize=12;fontStyle=0;container=1;pointerEvents=0;collapsible=0;recursiveResize=0;shape=mxgraph.aws4.group;grIcon=mxgraph.aws4.group_aws_cloud_alt;strokeColor=#232F3E;fillColor=none;verticalAlign=top;align=left;spacingLeft=30;fontColor=#232F3E;dashed=0;" parent="1" vertex="1">
          <mxGeometry x="-770" y="-240" width="2770" height="660" as="geometry" />
        </mxCell>
        <mxCell id="z7foghyVsHtjKupNQYj4-225" value="America" style="points=[[0,0],[0.25,0],[0.5,0],[0.75,0],[1,0],[1,0.25],[1,0.5],[1,0.75],[1,1],[0.75,1],[0.5,1],[0.25,1],[0,1],[0,0.75],[0,0.5],[0,0.25]];outlineConnect=0;gradientColor=none;html=1;whiteSpace=wrap;fontSize=12;fontStyle=0;container=1;pointerEvents=0;collapsible=0;recursiveResize=0;shape=mxgraph.aws4.group;grIcon=mxgraph.aws4.group_region;strokeColor=#147EBA;fillColor=none;verticalAlign=top;align=left;spacingLeft=30;fontColor=#147EBA;dashed=1;" parent="z7foghyVsHtjKupNQYj4-197" vertex="1">
          <mxGeometry x="210" y="130" width="600" height="510" as="geometry" />
        </mxCell>
        <mxCell id="z7foghyVsHtjKupNQYj4-226" value="" style="edgeStyle=orthogonalEdgeStyle;rounded=0;orthogonalLoop=1;jettySize=auto;html=1;entryX=0.5;entryY=0;entryDx=0;entryDy=0;entryPerimeter=0;" parent="z7foghyVsHtjKupNQYj4-225" source="z7foghyVsHtjKupNQYj4-227" target="z7foghyVsHtjKupNQYj4-238" edge="1">
          <mxGeometry relative="1" as="geometry">
            <mxPoint x="313.02857142857147" y="340" as="targetPoint" />
          </mxGeometry>
        </mxCell>
        <mxCell id="z7foghyVsHtjKupNQYj4-227" value="" style="sketch=0;points=[[0,0,0],[0.25,0,0],[0.5,0,0],[0.75,0,0],[1,0,0],[0,1,0],[0.25,1,0],[0.5,1,0],[0.75,1,0],[1,1,0],[0,0.25,0],[0,0.5,0],[0,0.75,0],[1,0.25,0],[1,0.5,0],[1,0.75,0]];outlineConnect=0;fontColor=#232F3E;gradientColor=#945DF2;gradientDirection=north;fillColor=#5A30B5;strokeColor=#ffffff;dashed=0;verticalLabelPosition=bottom;verticalAlign=top;align=center;html=1;fontSize=12;fontStyle=0;aspect=fixed;shape=mxgraph.aws4.resourceIcon;resIcon=mxgraph.aws4.elastic_load_balancing;" parent="z7foghyVsHtjKupNQYj4-225" vertex="1">
          <mxGeometry x="297" y="185" width="25" height="25" as="geometry" />
        </mxCell>
        <mxCell id="z7foghyVsHtjKupNQYj4-228" value="Asia_r2" style="points=[[0,0],[0.25,0],[0.5,0],[0.75,0],[1,0],[1,0.25],[1,0.5],[1,0.75],[1,1],[0.75,1],[0.5,1],[0.25,1],[0,1],[0,0.75],[0,0.5],[0,0.25]];outlineConnect=0;gradientColor=none;html=1;whiteSpace=wrap;fontSize=12;fontStyle=0;container=1;pointerEvents=0;collapsible=0;recursiveResize=0;shape=mxgraph.aws4.group;grIcon=mxgraph.aws4.group_region;strokeColor=#147EBA;fillColor=none;verticalAlign=top;align=left;spacingLeft=30;fontColor=#147EBA;dashed=1;" parent="z7foghyVsHtjKupNQYj4-225" vertex="1">
          <mxGeometry x="220" y="280" width="140" height="220" as="geometry" />
        </mxCell>
        <mxCell id="z7foghyVsHtjKupNQYj4-229" value="" style="sketch=0;outlineConnect=0;fontColor=#232F3E;gradientColor=none;fillColor=#D45B07;strokeColor=none;dashed=0;verticalLabelPosition=bottom;verticalAlign=top;align=center;html=1;fontSize=12;fontStyle=0;aspect=fixed;pointerEvents=1;shape=mxgraph.aws4.ec2_c6gn_instance;" parent="z7foghyVsHtjKupNQYj4-228" vertex="1">
          <mxGeometry x="75" y="88" width="30" height="30" as="geometry" />
        </mxCell>
        <mxCell id="z7foghyVsHtjKupNQYj4-230" value="" style="sketch=0;points=[[0,0,0],[0.25,0,0],[0.5,0,0],[0.75,0,0],[1,0,0],[0,1,0],[0.25,1,0],[0.5,1,0],[0.75,1,0],[1,1,0],[0,0.25,0],[0,0.5,0],[0,0.75,0],[1,0.25,0],[1,0.5,0],[1,0.75,0]];outlineConnect=0;fontColor=#232F3E;gradientColor=#4D72F3;gradientDirection=north;fillColor=#3334B9;strokeColor=#ffffff;dashed=0;verticalLabelPosition=bottom;verticalAlign=top;align=center;html=1;fontSize=12;fontStyle=0;aspect=fixed;shape=mxgraph.aws4.resourceIcon;resIcon=mxgraph.aws4.aurora;" parent="z7foghyVsHtjKupNQYj4-228" vertex="1">
          <mxGeometry x="77" y="154" width="28" height="28" as="geometry" />
        </mxCell>
        <mxCell id="z7foghyVsHtjKupNQYj4-231" value="" style="edgeStyle=orthogonalEdgeStyle;rounded=0;orthogonalLoop=1;jettySize=auto;html=1;" parent="z7foghyVsHtjKupNQYj4-228" source="z7foghyVsHtjKupNQYj4-229" target="z7foghyVsHtjKupNQYj4-230" edge="1">
          <mxGeometry relative="1" as="geometry" />
        </mxCell>
        <mxCell id="z7foghyVsHtjKupNQYj4-232" value="" style="edgeStyle=orthogonalEdgeStyle;rounded=0;orthogonalLoop=1;jettySize=auto;html=1;" parent="z7foghyVsHtjKupNQYj4-228" source="z7foghyVsHtjKupNQYj4-229" target="z7foghyVsHtjKupNQYj4-230" edge="1">
          <mxGeometry relative="1" as="geometry" />
        </mxCell>
        <mxCell id="z7foghyVsHtjKupNQYj4-233" value="" style="edgeStyle=orthogonalEdgeStyle;rounded=0;orthogonalLoop=1;jettySize=auto;html=1;" parent="z7foghyVsHtjKupNQYj4-228" source="z7foghyVsHtjKupNQYj4-229" target="z7foghyVsHtjKupNQYj4-230" edge="1">
          <mxGeometry relative="1" as="geometry" />
        </mxCell>
        <mxCell id="z7foghyVsHtjKupNQYj4-234" value="" style="edgeStyle=orthogonalEdgeStyle;rounded=0;orthogonalLoop=1;jettySize=auto;html=1;" parent="z7foghyVsHtjKupNQYj4-228" source="z7foghyVsHtjKupNQYj4-229" target="z7foghyVsHtjKupNQYj4-230" edge="1">
          <mxGeometry relative="1" as="geometry" />
        </mxCell>
        <mxCell id="z7foghyVsHtjKupNQYj4-235" value="" style="sketch=0;points=[[0,0,0],[0.25,0,0],[0.5,0,0],[0.75,0,0],[1,0,0],[0,1,0],[0.25,1,0],[0.5,1,0],[0.75,1,0],[1,1,0],[0,0.25,0],[0,0.5,0],[0,0.75,0],[1,0.25,0],[1,0.5,0],[1,0.75,0]];outlineConnect=0;fontColor=#232F3E;gradientColor=#4D72F3;gradientDirection=north;fillColor=#3334B9;strokeColor=#ffffff;dashed=0;verticalLabelPosition=bottom;verticalAlign=top;align=center;html=1;fontSize=12;fontStyle=0;aspect=fixed;shape=mxgraph.aws4.resourceIcon;resIcon=mxgraph.aws4.elasticache;" parent="z7foghyVsHtjKupNQYj4-228" vertex="1">
          <mxGeometry x="27" y="154" width="28" height="28" as="geometry" />
        </mxCell>
        <mxCell id="z7foghyVsHtjKupNQYj4-236" value="" style="edgeStyle=orthogonalEdgeStyle;rounded=0;orthogonalLoop=1;jettySize=auto;html=1;" parent="z7foghyVsHtjKupNQYj4-228" source="z7foghyVsHtjKupNQYj4-229" target="z7foghyVsHtjKupNQYj4-235" edge="1">
          <mxGeometry relative="1" as="geometry" />
        </mxCell>
        <mxCell id="z7foghyVsHtjKupNQYj4-237" style="edgeStyle=orthogonalEdgeStyle;rounded=0;orthogonalLoop=1;jettySize=auto;html=1;" parent="z7foghyVsHtjKupNQYj4-228" source="z7foghyVsHtjKupNQYj4-238" target="z7foghyVsHtjKupNQYj4-229" edge="1">
          <mxGeometry relative="1" as="geometry" />
        </mxCell>
        <mxCell id="z7foghyVsHtjKupNQYj4-238" value="" style="sketch=0;points=[[0,0,0],[0.25,0,0],[0.5,0,0],[0.75,0,0],[1,0,0],[0,1,0],[0.25,1,0],[0.5,1,0],[0.75,1,0],[1,1,0],[0,0.25,0],[0,0.5,0],[0,0.75,0],[1,0.25,0],[1,0.5,0],[1,0.75,0]];outlineConnect=0;fontColor=#232F3E;gradientColor=#945DF2;gradientDirection=north;fillColor=#5A30B5;strokeColor=#ffffff;dashed=0;verticalLabelPosition=bottom;verticalAlign=top;align=center;html=1;fontSize=12;fontStyle=0;aspect=fixed;shape=mxgraph.aws4.resourceIcon;resIcon=mxgraph.aws4.route_53;" parent="z7foghyVsHtjKupNQYj4-228" vertex="1">
          <mxGeometry x="77" y="38" width="25" height="25" as="geometry" />
        </mxCell>
        <mxCell id="z7foghyVsHtjKupNQYj4-239" value="VPC" style="sketch=0;outlineConnect=0;gradientColor=none;html=1;whiteSpace=wrap;fontSize=12;fontStyle=0;shape=mxgraph.aws4.group;grIcon=mxgraph.aws4.group_vpc;strokeColor=#879196;fillColor=none;verticalAlign=top;align=left;spacingLeft=30;fontColor=#879196;dashed=0;" parent="z7foghyVsHtjKupNQYj4-228" vertex="1">
          <mxGeometry x="5" y="30" width="130" height="180" as="geometry" />
        </mxCell>
        <mxCell id="z7foghyVsHtjKupNQYj4-240" value="" style="edgeStyle=orthogonalEdgeStyle;rounded=0;orthogonalLoop=1;jettySize=auto;html=1;" parent="z7foghyVsHtjKupNQYj4-225" source="z7foghyVsHtjKupNQYj4-241" target="z7foghyVsHtjKupNQYj4-227" edge="1">
          <mxGeometry relative="1" as="geometry" />
        </mxCell>
        <mxCell id="z7foghyVsHtjKupNQYj4-241" value="" style="sketch=0;points=[[0,0,0],[0.25,0,0],[0.5,0,0],[0.75,0,0],[1,0,0],[0,1,0],[0.25,1,0],[0.5,1,0],[0.75,1,0],[1,1,0],[0,0.25,0],[0,0.5,0],[0,0.75,0],[1,0.25,0],[1,0.5,0],[1,0.75,0]];outlineConnect=0;fontColor=#232F3E;gradientColor=#945DF2;gradientDirection=north;fillColor=#5A30B5;strokeColor=#ffffff;dashed=0;verticalLabelPosition=bottom;verticalAlign=top;align=center;html=1;fontSize=12;fontStyle=0;aspect=fixed;shape=mxgraph.aws4.resourceIcon;resIcon=mxgraph.aws4.route_53;" parent="z7foghyVsHtjKupNQYj4-225" vertex="1">
          <mxGeometry x="297" y="140" width="25" height="25" as="geometry" />
        </mxCell>
        <mxCell id="z7foghyVsHtjKupNQYj4-242" value="Asia_r1" style="points=[[0,0],[0.25,0],[0.5,0],[0.75,0],[1,0],[1,0.25],[1,0.5],[1,0.75],[1,1],[0.75,1],[0.5,1],[0.25,1],[0,1],[0,0.75],[0,0.5],[0,0.25]];outlineConnect=0;gradientColor=none;html=1;whiteSpace=wrap;fontSize=12;fontStyle=0;container=1;pointerEvents=0;collapsible=0;recursiveResize=0;shape=mxgraph.aws4.group;grIcon=mxgraph.aws4.group_region;strokeColor=#147EBA;fillColor=none;verticalAlign=top;align=left;spacingLeft=30;fontColor=#147EBA;dashed=1;" parent="z7foghyVsHtjKupNQYj4-225" vertex="1">
          <mxGeometry x="50" y="280" width="140" height="220" as="geometry" />
        </mxCell>
        <mxCell id="z7foghyVsHtjKupNQYj4-243" value="" style="edgeStyle=orthogonalEdgeStyle;rounded=0;orthogonalLoop=1;jettySize=auto;html=1;" parent="z7foghyVsHtjKupNQYj4-242" source="z7foghyVsHtjKupNQYj4-247" target="z7foghyVsHtjKupNQYj4-248" edge="1">
          <mxGeometry relative="1" as="geometry" />
        </mxCell>
        <mxCell id="z7foghyVsHtjKupNQYj4-244" value="" style="edgeStyle=orthogonalEdgeStyle;rounded=0;orthogonalLoop=1;jettySize=auto;html=1;" parent="z7foghyVsHtjKupNQYj4-242" source="z7foghyVsHtjKupNQYj4-247" target="z7foghyVsHtjKupNQYj4-248" edge="1">
          <mxGeometry relative="1" as="geometry" />
        </mxCell>
        <mxCell id="z7foghyVsHtjKupNQYj4-245" value="" style="edgeStyle=orthogonalEdgeStyle;rounded=0;orthogonalLoop=1;jettySize=auto;html=1;" parent="z7foghyVsHtjKupNQYj4-242" source="z7foghyVsHtjKupNQYj4-247" target="z7foghyVsHtjKupNQYj4-248" edge="1">
          <mxGeometry relative="1" as="geometry" />
        </mxCell>
        <mxCell id="z7foghyVsHtjKupNQYj4-246" value="" style="edgeStyle=orthogonalEdgeStyle;rounded=0;orthogonalLoop=1;jettySize=auto;html=1;" parent="z7foghyVsHtjKupNQYj4-242" source="z7foghyVsHtjKupNQYj4-247" target="z7foghyVsHtjKupNQYj4-248" edge="1">
          <mxGeometry relative="1" as="geometry" />
        </mxCell>
        <mxCell id="z7foghyVsHtjKupNQYj4-247" value="" style="sketch=0;outlineConnect=0;fontColor=#232F3E;gradientColor=none;fillColor=#D45B07;strokeColor=none;dashed=0;verticalLabelPosition=bottom;verticalAlign=top;align=center;html=1;fontSize=12;fontStyle=0;aspect=fixed;pointerEvents=1;shape=mxgraph.aws4.ec2_c6gn_instance;" parent="z7foghyVsHtjKupNQYj4-242" vertex="1">
          <mxGeometry x="78" y="88" width="30" height="30" as="geometry" />
        </mxCell>
        <mxCell id="z7foghyVsHtjKupNQYj4-248" value="" style="sketch=0;points=[[0,0,0],[0.25,0,0],[0.5,0,0],[0.75,0,0],[1,0,0],[0,1,0],[0.25,1,0],[0.5,1,0],[0.75,1,0],[1,1,0],[0,0.25,0],[0,0.5,0],[0,0.75,0],[1,0.25,0],[1,0.5,0],[1,0.75,0]];outlineConnect=0;fontColor=#232F3E;gradientColor=#4D72F3;gradientDirection=north;fillColor=#3334B9;strokeColor=#ffffff;dashed=0;verticalLabelPosition=bottom;verticalAlign=top;align=center;html=1;fontSize=12;fontStyle=0;aspect=fixed;shape=mxgraph.aws4.resourceIcon;resIcon=mxgraph.aws4.aurora;" parent="z7foghyVsHtjKupNQYj4-242" vertex="1">
          <mxGeometry x="80" y="154" width="28" height="28" as="geometry" />
        </mxCell>
        <mxCell id="z7foghyVsHtjKupNQYj4-249" value="" style="sketch=0;points=[[0,0,0],[0.25,0,0],[0.5,0,0],[0.75,0,0],[1,0,0],[0,1,0],[0.25,1,0],[0.5,1,0],[0.75,1,0],[1,1,0],[0,0.25,0],[0,0.5,0],[0,0.75,0],[1,0.25,0],[1,0.5,0],[1,0.75,0]];outlineConnect=0;fontColor=#232F3E;gradientColor=#4D72F3;gradientDirection=north;fillColor=#3334B9;strokeColor=#ffffff;dashed=0;verticalLabelPosition=bottom;verticalAlign=top;align=center;html=1;fontSize=12;fontStyle=0;aspect=fixed;shape=mxgraph.aws4.resourceIcon;resIcon=mxgraph.aws4.elasticache;" parent="z7foghyVsHtjKupNQYj4-242" vertex="1">
          <mxGeometry x="30" y="154" width="28" height="28" as="geometry" />
        </mxCell>
        <mxCell id="z7foghyVsHtjKupNQYj4-250" value="" style="edgeStyle=orthogonalEdgeStyle;rounded=0;orthogonalLoop=1;jettySize=auto;html=1;" parent="z7foghyVsHtjKupNQYj4-242" source="z7foghyVsHtjKupNQYj4-247" target="z7foghyVsHtjKupNQYj4-249" edge="1">
          <mxGeometry relative="1" as="geometry" />
        </mxCell>
        <mxCell id="z7foghyVsHtjKupNQYj4-251" style="edgeStyle=orthogonalEdgeStyle;rounded=0;orthogonalLoop=1;jettySize=auto;html=1;" parent="z7foghyVsHtjKupNQYj4-242" source="z7foghyVsHtjKupNQYj4-252" target="z7foghyVsHtjKupNQYj4-247" edge="1">
          <mxGeometry relative="1" as="geometry" />
        </mxCell>
        <mxCell id="z7foghyVsHtjKupNQYj4-252" value="" style="sketch=0;points=[[0,0,0],[0.25,0,0],[0.5,0,0],[0.75,0,0],[1,0,0],[0,1,0],[0.25,1,0],[0.5,1,0],[0.75,1,0],[1,1,0],[0,0.25,0],[0,0.5,0],[0,0.75,0],[1,0.25,0],[1,0.5,0],[1,0.75,0]];outlineConnect=0;fontColor=#232F3E;gradientColor=#945DF2;gradientDirection=north;fillColor=#5A30B5;strokeColor=#ffffff;dashed=0;verticalLabelPosition=bottom;verticalAlign=top;align=center;html=1;fontSize=12;fontStyle=0;aspect=fixed;shape=mxgraph.aws4.resourceIcon;resIcon=mxgraph.aws4.route_53;" parent="z7foghyVsHtjKupNQYj4-242" vertex="1">
          <mxGeometry x="80" y="38" width="25" height="25" as="geometry" />
        </mxCell>
        <mxCell id="z7foghyVsHtjKupNQYj4-253" value="VPC" style="sketch=0;outlineConnect=0;gradientColor=none;html=1;whiteSpace=wrap;fontSize=12;fontStyle=0;shape=mxgraph.aws4.group;grIcon=mxgraph.aws4.group_vpc;strokeColor=#879196;fillColor=none;verticalAlign=top;align=left;spacingLeft=30;fontColor=#879196;dashed=0;" parent="z7foghyVsHtjKupNQYj4-242" vertex="1">
          <mxGeometry x="5" y="30" width="130" height="180" as="geometry" />
        </mxCell>
        <mxCell id="z7foghyVsHtjKupNQYj4-254" value="" style="edgeStyle=orthogonalEdgeStyle;rounded=0;orthogonalLoop=1;jettySize=auto;html=1;entryX=0.5;entryY=0;entryDx=0;entryDy=0;entryPerimeter=0;" parent="z7foghyVsHtjKupNQYj4-225" source="z7foghyVsHtjKupNQYj4-227" target="z7foghyVsHtjKupNQYj4-252" edge="1">
          <mxGeometry relative="1" as="geometry" />
        </mxCell>
        <mxCell id="z7foghyVsHtjKupNQYj4-255" value="Asia_r3" style="points=[[0,0],[0.25,0],[0.5,0],[0.75,0],[1,0],[1,0.25],[1,0.5],[1,0.75],[1,1],[0.75,1],[0.5,1],[0.25,1],[0,1],[0,0.75],[0,0.5],[0,0.25]];outlineConnect=0;gradientColor=none;html=1;whiteSpace=wrap;fontSize=12;fontStyle=0;container=1;pointerEvents=0;collapsible=0;recursiveResize=0;shape=mxgraph.aws4.group;grIcon=mxgraph.aws4.group_region;strokeColor=#147EBA;fillColor=none;verticalAlign=top;align=left;spacingLeft=30;fontColor=#147EBA;dashed=1;" parent="z7foghyVsHtjKupNQYj4-225" vertex="1">
          <mxGeometry x="390" y="280" width="140" height="220" as="geometry" />
        </mxCell>
        <mxCell id="z7foghyVsHtjKupNQYj4-256" value="" style="sketch=0;outlineConnect=0;fontColor=#232F3E;gradientColor=none;fillColor=#D45B07;strokeColor=none;dashed=0;verticalLabelPosition=bottom;verticalAlign=top;align=center;html=1;fontSize=12;fontStyle=0;aspect=fixed;pointerEvents=1;shape=mxgraph.aws4.ec2_c6gn_instance;" parent="z7foghyVsHtjKupNQYj4-255" vertex="1">
          <mxGeometry x="79" y="88" width="30" height="30" as="geometry" />
        </mxCell>
        <mxCell id="z7foghyVsHtjKupNQYj4-257" value="" style="sketch=0;points=[[0,0,0],[0.25,0,0],[0.5,0,0],[0.75,0,0],[1,0,0],[0,1,0],[0.25,1,0],[0.5,1,0],[0.75,1,0],[1,1,0],[0,0.25,0],[0,0.5,0],[0,0.75,0],[1,0.25,0],[1,0.5,0],[1,0.75,0]];outlineConnect=0;fontColor=#232F3E;gradientColor=#4D72F3;gradientDirection=north;fillColor=#3334B9;strokeColor=#ffffff;dashed=0;verticalLabelPosition=bottom;verticalAlign=top;align=center;html=1;fontSize=12;fontStyle=0;aspect=fixed;shape=mxgraph.aws4.resourceIcon;resIcon=mxgraph.aws4.aurora;" parent="z7foghyVsHtjKupNQYj4-255" vertex="1">
          <mxGeometry x="81" y="154" width="28" height="28" as="geometry" />
        </mxCell>
        <mxCell id="z7foghyVsHtjKupNQYj4-258" value="" style="edgeStyle=orthogonalEdgeStyle;rounded=0;orthogonalLoop=1;jettySize=auto;html=1;" parent="z7foghyVsHtjKupNQYj4-255" source="z7foghyVsHtjKupNQYj4-256" target="z7foghyVsHtjKupNQYj4-257" edge="1">
          <mxGeometry relative="1" as="geometry" />
        </mxCell>
        <mxCell id="z7foghyVsHtjKupNQYj4-259" value="" style="edgeStyle=orthogonalEdgeStyle;rounded=0;orthogonalLoop=1;jettySize=auto;html=1;" parent="z7foghyVsHtjKupNQYj4-255" source="z7foghyVsHtjKupNQYj4-256" target="z7foghyVsHtjKupNQYj4-257" edge="1">
          <mxGeometry relative="1" as="geometry" />
        </mxCell>
        <mxCell id="z7foghyVsHtjKupNQYj4-260" value="" style="edgeStyle=orthogonalEdgeStyle;rounded=0;orthogonalLoop=1;jettySize=auto;html=1;" parent="z7foghyVsHtjKupNQYj4-255" source="z7foghyVsHtjKupNQYj4-256" target="z7foghyVsHtjKupNQYj4-257" edge="1">
          <mxGeometry relative="1" as="geometry" />
        </mxCell>
        <mxCell id="z7foghyVsHtjKupNQYj4-261" value="" style="edgeStyle=orthogonalEdgeStyle;rounded=0;orthogonalLoop=1;jettySize=auto;html=1;" parent="z7foghyVsHtjKupNQYj4-255" source="z7foghyVsHtjKupNQYj4-256" target="z7foghyVsHtjKupNQYj4-257" edge="1">
          <mxGeometry relative="1" as="geometry" />
        </mxCell>
        <mxCell id="z7foghyVsHtjKupNQYj4-262" value="" style="sketch=0;points=[[0,0,0],[0.25,0,0],[0.5,0,0],[0.75,0,0],[1,0,0],[0,1,0],[0.25,1,0],[0.5,1,0],[0.75,1,0],[1,1,0],[0,0.25,0],[0,0.5,0],[0,0.75,0],[1,0.25,0],[1,0.5,0],[1,0.75,0]];outlineConnect=0;fontColor=#232F3E;gradientColor=#4D72F3;gradientDirection=north;fillColor=#3334B9;strokeColor=#ffffff;dashed=0;verticalLabelPosition=bottom;verticalAlign=top;align=center;html=1;fontSize=12;fontStyle=0;aspect=fixed;shape=mxgraph.aws4.resourceIcon;resIcon=mxgraph.aws4.elasticache;" parent="z7foghyVsHtjKupNQYj4-255" vertex="1">
          <mxGeometry x="31" y="154" width="28" height="28" as="geometry" />
        </mxCell>
        <mxCell id="z7foghyVsHtjKupNQYj4-263" value="" style="edgeStyle=orthogonalEdgeStyle;rounded=0;orthogonalLoop=1;jettySize=auto;html=1;" parent="z7foghyVsHtjKupNQYj4-255" source="z7foghyVsHtjKupNQYj4-256" target="z7foghyVsHtjKupNQYj4-262" edge="1">
          <mxGeometry relative="1" as="geometry" />
        </mxCell>
        <mxCell id="z7foghyVsHtjKupNQYj4-264" style="edgeStyle=orthogonalEdgeStyle;rounded=0;orthogonalLoop=1;jettySize=auto;html=1;" parent="z7foghyVsHtjKupNQYj4-255" source="z7foghyVsHtjKupNQYj4-265" target="z7foghyVsHtjKupNQYj4-256" edge="1">
          <mxGeometry relative="1" as="geometry" />
        </mxCell>
        <mxCell id="z7foghyVsHtjKupNQYj4-265" value="" style="sketch=0;points=[[0,0,0],[0.25,0,0],[0.5,0,0],[0.75,0,0],[1,0,0],[0,1,0],[0.25,1,0],[0.5,1,0],[0.75,1,0],[1,1,0],[0,0.25,0],[0,0.5,0],[0,0.75,0],[1,0.25,0],[1,0.5,0],[1,0.75,0]];outlineConnect=0;fontColor=#232F3E;gradientColor=#945DF2;gradientDirection=north;fillColor=#5A30B5;strokeColor=#ffffff;dashed=0;verticalLabelPosition=bottom;verticalAlign=top;align=center;html=1;fontSize=12;fontStyle=0;aspect=fixed;shape=mxgraph.aws4.resourceIcon;resIcon=mxgraph.aws4.route_53;" parent="z7foghyVsHtjKupNQYj4-255" vertex="1">
          <mxGeometry x="81" y="38" width="25" height="25" as="geometry" />
        </mxCell>
        <mxCell id="z7foghyVsHtjKupNQYj4-266" value="VPC" style="sketch=0;outlineConnect=0;gradientColor=none;html=1;whiteSpace=wrap;fontSize=12;fontStyle=1;shape=mxgraph.aws4.group;grIcon=mxgraph.aws4.group_vpc;strokeColor=#879196;fillColor=none;verticalAlign=top;align=left;spacingLeft=30;fontColor=#879196;dashed=0;" parent="z7foghyVsHtjKupNQYj4-255" vertex="1">
          <mxGeometry x="10" y="30" width="120" height="180" as="geometry" />
        </mxCell>
        <mxCell id="z7foghyVsHtjKupNQYj4-267" style="edgeStyle=orthogonalEdgeStyle;rounded=0;orthogonalLoop=1;jettySize=auto;html=1;" parent="z7foghyVsHtjKupNQYj4-225" source="z7foghyVsHtjKupNQYj4-227" target="z7foghyVsHtjKupNQYj4-265" edge="1">
          <mxGeometry relative="1" as="geometry">
            <mxPoint x="483" y="350" as="targetPoint" />
          </mxGeometry>
        </mxCell>
        <mxCell id="z7foghyVsHtjKupNQYj4-268" style="edgeStyle=orthogonalEdgeStyle;rounded=0;orthogonalLoop=1;jettySize=auto;html=1;entryX=0.5;entryY=0;entryDx=0;entryDy=0;entryPerimeter=0;" parent="z7foghyVsHtjKupNQYj4-225" source="z7foghyVsHtjKupNQYj4-269" target="z7foghyVsHtjKupNQYj4-241" edge="1">
          <mxGeometry relative="1" as="geometry" />
        </mxCell>
        <mxCell id="z7foghyVsHtjKupNQYj4-269" value="" style="sketch=0;outlineConnect=0;fontColor=#232F3E;gradientColor=none;fillColor=#4D27AA;strokeColor=none;dashed=0;verticalLabelPosition=bottom;verticalAlign=top;align=center;html=1;fontSize=12;fontStyle=0;aspect=fixed;pointerEvents=1;shape=mxgraph.aws4.internet_gateway;" parent="z7foghyVsHtjKupNQYj4-225" vertex="1">
          <mxGeometry x="294.5" y="90" width="30" height="30" as="geometry" />
        </mxCell>
        <mxCell id="z7foghyVsHtjKupNQYj4-271" style="edgeStyle=orthogonalEdgeStyle;rounded=0;orthogonalLoop=1;jettySize=auto;html=1;" parent="z7foghyVsHtjKupNQYj4-225" source="z7foghyVsHtjKupNQYj4-270" target="z7foghyVsHtjKupNQYj4-269" edge="1">
          <mxGeometry relative="1" as="geometry" />
        </mxCell>
        <mxCell id="z7foghyVsHtjKupNQYj4-270" value="" style="sketch=0;outlineConnect=0;fontColor=#232F3E;gradientColor=none;fillColor=#4D27AA;strokeColor=none;dashed=0;verticalLabelPosition=bottom;verticalAlign=top;align=center;html=1;fontSize=12;fontStyle=0;aspect=fixed;pointerEvents=1;shape=mxgraph.aws4.network_access_control_list;" parent="z7foghyVsHtjKupNQYj4-225" vertex="1">
          <mxGeometry x="295.5" y="30" width="28" height="28" as="geometry" />
        </mxCell>
        <mxCell id="z7foghyVsHtjKupNQYj4-272" value="Europe" style="points=[[0,0],[0.25,0],[0.5,0],[0.75,0],[1,0],[1,0.25],[1,0.5],[1,0.75],[1,1],[0.75,1],[0.5,1],[0.25,1],[0,1],[0,0.75],[0,0.5],[0,0.25]];outlineConnect=0;gradientColor=none;html=1;whiteSpace=wrap;fontSize=12;fontStyle=0;container=1;pointerEvents=0;collapsible=0;recursiveResize=0;shape=mxgraph.aws4.group;grIcon=mxgraph.aws4.group_region;strokeColor=#147EBA;fillColor=none;verticalAlign=top;align=left;spacingLeft=30;fontColor=#147EBA;dashed=1;" parent="z7foghyVsHtjKupNQYj4-197" vertex="1">
          <mxGeometry x="2130" y="130" width="600" height="510" as="geometry" />
        </mxCell>
        <mxCell id="z7foghyVsHtjKupNQYj4-273" value="" style="edgeStyle=orthogonalEdgeStyle;rounded=0;orthogonalLoop=1;jettySize=auto;html=1;entryX=0.5;entryY=0;entryDx=0;entryDy=0;entryPerimeter=0;" parent="z7foghyVsHtjKupNQYj4-272" source="z7foghyVsHtjKupNQYj4-274" target="z7foghyVsHtjKupNQYj4-285" edge="1">
          <mxGeometry relative="1" as="geometry">
            <mxPoint x="313.02857142857147" y="340" as="targetPoint" />
          </mxGeometry>
        </mxCell>
        <mxCell id="z7foghyVsHtjKupNQYj4-274" value="" style="sketch=0;points=[[0,0,0],[0.25,0,0],[0.5,0,0],[0.75,0,0],[1,0,0],[0,1,0],[0.25,1,0],[0.5,1,0],[0.75,1,0],[1,1,0],[0,0.25,0],[0,0.5,0],[0,0.75,0],[1,0.25,0],[1,0.5,0],[1,0.75,0]];outlineConnect=0;fontColor=#232F3E;gradientColor=#945DF2;gradientDirection=north;fillColor=#5A30B5;strokeColor=#ffffff;dashed=0;verticalLabelPosition=bottom;verticalAlign=top;align=center;html=1;fontSize=12;fontStyle=0;aspect=fixed;shape=mxgraph.aws4.resourceIcon;resIcon=mxgraph.aws4.elastic_load_balancing;" parent="z7foghyVsHtjKupNQYj4-272" vertex="1">
          <mxGeometry x="297" y="185" width="25" height="25" as="geometry" />
        </mxCell>
        <mxCell id="z7foghyVsHtjKupNQYj4-275" value="Asia_r2" style="points=[[0,0],[0.25,0],[0.5,0],[0.75,0],[1,0],[1,0.25],[1,0.5],[1,0.75],[1,1],[0.75,1],[0.5,1],[0.25,1],[0,1],[0,0.75],[0,0.5],[0,0.25]];outlineConnect=0;gradientColor=none;html=1;whiteSpace=wrap;fontSize=12;fontStyle=0;container=1;pointerEvents=0;collapsible=0;recursiveResize=0;shape=mxgraph.aws4.group;grIcon=mxgraph.aws4.group_region;strokeColor=#147EBA;fillColor=none;verticalAlign=top;align=left;spacingLeft=30;fontColor=#147EBA;dashed=1;" parent="z7foghyVsHtjKupNQYj4-272" vertex="1">
          <mxGeometry x="220" y="280" width="140" height="220" as="geometry" />
        </mxCell>
        <mxCell id="z7foghyVsHtjKupNQYj4-276" value="" style="sketch=0;outlineConnect=0;fontColor=#232F3E;gradientColor=none;fillColor=#D45B07;strokeColor=none;dashed=0;verticalLabelPosition=bottom;verticalAlign=top;align=center;html=1;fontSize=12;fontStyle=0;aspect=fixed;pointerEvents=1;shape=mxgraph.aws4.ec2_c6gn_instance;" parent="z7foghyVsHtjKupNQYj4-275" vertex="1">
          <mxGeometry x="75" y="88" width="30" height="30" as="geometry" />
        </mxCell>
        <mxCell id="z7foghyVsHtjKupNQYj4-277" value="" style="sketch=0;points=[[0,0,0],[0.25,0,0],[0.5,0,0],[0.75,0,0],[1,0,0],[0,1,0],[0.25,1,0],[0.5,1,0],[0.75,1,0],[1,1,0],[0,0.25,0],[0,0.5,0],[0,0.75,0],[1,0.25,0],[1,0.5,0],[1,0.75,0]];outlineConnect=0;fontColor=#232F3E;gradientColor=#4D72F3;gradientDirection=north;fillColor=#3334B9;strokeColor=#ffffff;dashed=0;verticalLabelPosition=bottom;verticalAlign=top;align=center;html=1;fontSize=12;fontStyle=0;aspect=fixed;shape=mxgraph.aws4.resourceIcon;resIcon=mxgraph.aws4.aurora;" parent="z7foghyVsHtjKupNQYj4-275" vertex="1">
          <mxGeometry x="77" y="154" width="28" height="28" as="geometry" />
        </mxCell>
        <mxCell id="z7foghyVsHtjKupNQYj4-278" value="" style="edgeStyle=orthogonalEdgeStyle;rounded=0;orthogonalLoop=1;jettySize=auto;html=1;" parent="z7foghyVsHtjKupNQYj4-275" source="z7foghyVsHtjKupNQYj4-276" target="z7foghyVsHtjKupNQYj4-277" edge="1">
          <mxGeometry relative="1" as="geometry" />
        </mxCell>
        <mxCell id="z7foghyVsHtjKupNQYj4-279" value="" style="edgeStyle=orthogonalEdgeStyle;rounded=0;orthogonalLoop=1;jettySize=auto;html=1;" parent="z7foghyVsHtjKupNQYj4-275" source="z7foghyVsHtjKupNQYj4-276" target="z7foghyVsHtjKupNQYj4-277" edge="1">
          <mxGeometry relative="1" as="geometry" />
        </mxCell>
        <mxCell id="z7foghyVsHtjKupNQYj4-280" value="" style="edgeStyle=orthogonalEdgeStyle;rounded=0;orthogonalLoop=1;jettySize=auto;html=1;" parent="z7foghyVsHtjKupNQYj4-275" source="z7foghyVsHtjKupNQYj4-276" target="z7foghyVsHtjKupNQYj4-277" edge="1">
          <mxGeometry relative="1" as="geometry" />
        </mxCell>
        <mxCell id="z7foghyVsHtjKupNQYj4-281" value="" style="edgeStyle=orthogonalEdgeStyle;rounded=0;orthogonalLoop=1;jettySize=auto;html=1;" parent="z7foghyVsHtjKupNQYj4-275" source="z7foghyVsHtjKupNQYj4-276" target="z7foghyVsHtjKupNQYj4-277" edge="1">
          <mxGeometry relative="1" as="geometry" />
        </mxCell>
        <mxCell id="z7foghyVsHtjKupNQYj4-282" value="" style="sketch=0;points=[[0,0,0],[0.25,0,0],[0.5,0,0],[0.75,0,0],[1,0,0],[0,1,0],[0.25,1,0],[0.5,1,0],[0.75,1,0],[1,1,0],[0,0.25,0],[0,0.5,0],[0,0.75,0],[1,0.25,0],[1,0.5,0],[1,0.75,0]];outlineConnect=0;fontColor=#232F3E;gradientColor=#4D72F3;gradientDirection=north;fillColor=#3334B9;strokeColor=#ffffff;dashed=0;verticalLabelPosition=bottom;verticalAlign=top;align=center;html=1;fontSize=12;fontStyle=0;aspect=fixed;shape=mxgraph.aws4.resourceIcon;resIcon=mxgraph.aws4.elasticache;" parent="z7foghyVsHtjKupNQYj4-275" vertex="1">
          <mxGeometry x="27" y="154" width="28" height="28" as="geometry" />
        </mxCell>
        <mxCell id="z7foghyVsHtjKupNQYj4-283" value="" style="edgeStyle=orthogonalEdgeStyle;rounded=0;orthogonalLoop=1;jettySize=auto;html=1;" parent="z7foghyVsHtjKupNQYj4-275" source="z7foghyVsHtjKupNQYj4-276" target="z7foghyVsHtjKupNQYj4-282" edge="1">
          <mxGeometry relative="1" as="geometry" />
        </mxCell>
        <mxCell id="z7foghyVsHtjKupNQYj4-284" style="edgeStyle=orthogonalEdgeStyle;rounded=0;orthogonalLoop=1;jettySize=auto;html=1;" parent="z7foghyVsHtjKupNQYj4-275" source="z7foghyVsHtjKupNQYj4-285" target="z7foghyVsHtjKupNQYj4-276" edge="1">
          <mxGeometry relative="1" as="geometry" />
        </mxCell>
        <mxCell id="z7foghyVsHtjKupNQYj4-285" value="" style="sketch=0;points=[[0,0,0],[0.25,0,0],[0.5,0,0],[0.75,0,0],[1,0,0],[0,1,0],[0.25,1,0],[0.5,1,0],[0.75,1,0],[1,1,0],[0,0.25,0],[0,0.5,0],[0,0.75,0],[1,0.25,0],[1,0.5,0],[1,0.75,0]];outlineConnect=0;fontColor=#232F3E;gradientColor=#945DF2;gradientDirection=north;fillColor=#5A30B5;strokeColor=#ffffff;dashed=0;verticalLabelPosition=bottom;verticalAlign=top;align=center;html=1;fontSize=12;fontStyle=0;aspect=fixed;shape=mxgraph.aws4.resourceIcon;resIcon=mxgraph.aws4.route_53;" parent="z7foghyVsHtjKupNQYj4-275" vertex="1">
          <mxGeometry x="77" y="38" width="25" height="25" as="geometry" />
        </mxCell>
        <mxCell id="z7foghyVsHtjKupNQYj4-286" value="VPC" style="sketch=0;outlineConnect=0;gradientColor=none;html=1;whiteSpace=wrap;fontSize=12;fontStyle=0;shape=mxgraph.aws4.group;grIcon=mxgraph.aws4.group_vpc;strokeColor=#879196;fillColor=none;verticalAlign=top;align=left;spacingLeft=30;fontColor=#879196;dashed=0;" parent="z7foghyVsHtjKupNQYj4-275" vertex="1">
          <mxGeometry x="5" y="30" width="130" height="180" as="geometry" />
        </mxCell>
        <mxCell id="z7foghyVsHtjKupNQYj4-287" value="" style="edgeStyle=orthogonalEdgeStyle;rounded=0;orthogonalLoop=1;jettySize=auto;html=1;" parent="z7foghyVsHtjKupNQYj4-272" source="z7foghyVsHtjKupNQYj4-288" target="z7foghyVsHtjKupNQYj4-274" edge="1">
          <mxGeometry relative="1" as="geometry" />
        </mxCell>
        <mxCell id="z7foghyVsHtjKupNQYj4-288" value="" style="sketch=0;points=[[0,0,0],[0.25,0,0],[0.5,0,0],[0.75,0,0],[1,0,0],[0,1,0],[0.25,1,0],[0.5,1,0],[0.75,1,0],[1,1,0],[0,0.25,0],[0,0.5,0],[0,0.75,0],[1,0.25,0],[1,0.5,0],[1,0.75,0]];outlineConnect=0;fontColor=#232F3E;gradientColor=#945DF2;gradientDirection=north;fillColor=#5A30B5;strokeColor=#ffffff;dashed=0;verticalLabelPosition=bottom;verticalAlign=top;align=center;html=1;fontSize=12;fontStyle=0;aspect=fixed;shape=mxgraph.aws4.resourceIcon;resIcon=mxgraph.aws4.route_53;" parent="z7foghyVsHtjKupNQYj4-272" vertex="1">
          <mxGeometry x="297" y="140" width="25" height="25" as="geometry" />
        </mxCell>
        <mxCell id="z7foghyVsHtjKupNQYj4-289" value="EU_r1" style="points=[[0,0],[0.25,0],[0.5,0],[0.75,0],[1,0],[1,0.25],[1,0.5],[1,0.75],[1,1],[0.75,1],[0.5,1],[0.25,1],[0,1],[0,0.75],[0,0.5],[0,0.25]];outlineConnect=0;gradientColor=none;html=1;whiteSpace=wrap;fontSize=12;fontStyle=0;container=1;pointerEvents=0;collapsible=0;recursiveResize=0;shape=mxgraph.aws4.group;grIcon=mxgraph.aws4.group_region;strokeColor=#147EBA;fillColor=none;verticalAlign=top;align=left;spacingLeft=30;fontColor=#147EBA;dashed=1;" parent="z7foghyVsHtjKupNQYj4-272" vertex="1">
          <mxGeometry x="50" y="280" width="140" height="220" as="geometry" />
        </mxCell>
        <mxCell id="z7foghyVsHtjKupNQYj4-290" value="" style="edgeStyle=orthogonalEdgeStyle;rounded=0;orthogonalLoop=1;jettySize=auto;html=1;" parent="z7foghyVsHtjKupNQYj4-289" source="z7foghyVsHtjKupNQYj4-294" target="z7foghyVsHtjKupNQYj4-295" edge="1">
          <mxGeometry relative="1" as="geometry" />
        </mxCell>
        <mxCell id="z7foghyVsHtjKupNQYj4-291" value="" style="edgeStyle=orthogonalEdgeStyle;rounded=0;orthogonalLoop=1;jettySize=auto;html=1;" parent="z7foghyVsHtjKupNQYj4-289" source="z7foghyVsHtjKupNQYj4-294" target="z7foghyVsHtjKupNQYj4-295" edge="1">
          <mxGeometry relative="1" as="geometry" />
        </mxCell>
        <mxCell id="z7foghyVsHtjKupNQYj4-292" value="" style="edgeStyle=orthogonalEdgeStyle;rounded=0;orthogonalLoop=1;jettySize=auto;html=1;" parent="z7foghyVsHtjKupNQYj4-289" source="z7foghyVsHtjKupNQYj4-294" target="z7foghyVsHtjKupNQYj4-295" edge="1">
          <mxGeometry relative="1" as="geometry" />
        </mxCell>
        <mxCell id="z7foghyVsHtjKupNQYj4-293" value="" style="edgeStyle=orthogonalEdgeStyle;rounded=0;orthogonalLoop=1;jettySize=auto;html=1;" parent="z7foghyVsHtjKupNQYj4-289" source="z7foghyVsHtjKupNQYj4-294" target="z7foghyVsHtjKupNQYj4-295" edge="1">
          <mxGeometry relative="1" as="geometry" />
        </mxCell>
        <mxCell id="z7foghyVsHtjKupNQYj4-294" value="" style="sketch=0;outlineConnect=0;fontColor=#232F3E;gradientColor=none;fillColor=#D45B07;strokeColor=none;dashed=0;verticalLabelPosition=bottom;verticalAlign=top;align=center;html=1;fontSize=12;fontStyle=0;aspect=fixed;pointerEvents=1;shape=mxgraph.aws4.ec2_c6gn_instance;" parent="z7foghyVsHtjKupNQYj4-289" vertex="1">
          <mxGeometry x="78" y="88" width="30" height="30" as="geometry" />
        </mxCell>
        <mxCell id="z7foghyVsHtjKupNQYj4-295" value="" style="sketch=0;points=[[0,0,0],[0.25,0,0],[0.5,0,0],[0.75,0,0],[1,0,0],[0,1,0],[0.25,1,0],[0.5,1,0],[0.75,1,0],[1,1,0],[0,0.25,0],[0,0.5,0],[0,0.75,0],[1,0.25,0],[1,0.5,0],[1,0.75,0]];outlineConnect=0;fontColor=#232F3E;gradientColor=#4D72F3;gradientDirection=north;fillColor=#3334B9;strokeColor=#ffffff;dashed=0;verticalLabelPosition=bottom;verticalAlign=top;align=center;html=1;fontSize=12;fontStyle=0;aspect=fixed;shape=mxgraph.aws4.resourceIcon;resIcon=mxgraph.aws4.aurora;" parent="z7foghyVsHtjKupNQYj4-289" vertex="1">
          <mxGeometry x="80" y="154" width="28" height="28" as="geometry" />
        </mxCell>
        <mxCell id="z7foghyVsHtjKupNQYj4-296" value="" style="sketch=0;points=[[0,0,0],[0.25,0,0],[0.5,0,0],[0.75,0,0],[1,0,0],[0,1,0],[0.25,1,0],[0.5,1,0],[0.75,1,0],[1,1,0],[0,0.25,0],[0,0.5,0],[0,0.75,0],[1,0.25,0],[1,0.5,0],[1,0.75,0]];outlineConnect=0;fontColor=#232F3E;gradientColor=#4D72F3;gradientDirection=north;fillColor=#3334B9;strokeColor=#ffffff;dashed=0;verticalLabelPosition=bottom;verticalAlign=top;align=center;html=1;fontSize=12;fontStyle=0;aspect=fixed;shape=mxgraph.aws4.resourceIcon;resIcon=mxgraph.aws4.elasticache;" parent="z7foghyVsHtjKupNQYj4-289" vertex="1">
          <mxGeometry x="30" y="154" width="28" height="28" as="geometry" />
        </mxCell>
        <mxCell id="z7foghyVsHtjKupNQYj4-297" value="" style="edgeStyle=orthogonalEdgeStyle;rounded=0;orthogonalLoop=1;jettySize=auto;html=1;" parent="z7foghyVsHtjKupNQYj4-289" source="z7foghyVsHtjKupNQYj4-294" target="z7foghyVsHtjKupNQYj4-296" edge="1">
          <mxGeometry relative="1" as="geometry" />
        </mxCell>
        <mxCell id="z7foghyVsHtjKupNQYj4-298" style="edgeStyle=orthogonalEdgeStyle;rounded=0;orthogonalLoop=1;jettySize=auto;html=1;" parent="z7foghyVsHtjKupNQYj4-289" source="z7foghyVsHtjKupNQYj4-299" target="z7foghyVsHtjKupNQYj4-294" edge="1">
          <mxGeometry relative="1" as="geometry" />
        </mxCell>
        <mxCell id="z7foghyVsHtjKupNQYj4-299" value="" style="sketch=0;points=[[0,0,0],[0.25,0,0],[0.5,0,0],[0.75,0,0],[1,0,0],[0,1,0],[0.25,1,0],[0.5,1,0],[0.75,1,0],[1,1,0],[0,0.25,0],[0,0.5,0],[0,0.75,0],[1,0.25,0],[1,0.5,0],[1,0.75,0]];outlineConnect=0;fontColor=#232F3E;gradientColor=#945DF2;gradientDirection=north;fillColor=#5A30B5;strokeColor=#ffffff;dashed=0;verticalLabelPosition=bottom;verticalAlign=top;align=center;html=1;fontSize=12;fontStyle=0;aspect=fixed;shape=mxgraph.aws4.resourceIcon;resIcon=mxgraph.aws4.route_53;" parent="z7foghyVsHtjKupNQYj4-289" vertex="1">
          <mxGeometry x="80" y="38" width="25" height="25" as="geometry" />
        </mxCell>
        <mxCell id="z7foghyVsHtjKupNQYj4-300" value="VPC" style="sketch=0;outlineConnect=0;gradientColor=none;html=1;whiteSpace=wrap;fontSize=12;fontStyle=0;shape=mxgraph.aws4.group;grIcon=mxgraph.aws4.group_vpc;strokeColor=#879196;fillColor=none;verticalAlign=top;align=left;spacingLeft=30;fontColor=#879196;dashed=0;" parent="z7foghyVsHtjKupNQYj4-289" vertex="1">
          <mxGeometry x="5" y="30" width="130" height="180" as="geometry" />
        </mxCell>
        <mxCell id="z7foghyVsHtjKupNQYj4-301" value="" style="edgeStyle=orthogonalEdgeStyle;rounded=0;orthogonalLoop=1;jettySize=auto;html=1;entryX=0.5;entryY=0;entryDx=0;entryDy=0;entryPerimeter=0;" parent="z7foghyVsHtjKupNQYj4-272" source="z7foghyVsHtjKupNQYj4-274" target="z7foghyVsHtjKupNQYj4-299" edge="1">
          <mxGeometry relative="1" as="geometry" />
        </mxCell>
        <mxCell id="z7foghyVsHtjKupNQYj4-302" value="Asia_r3" style="points=[[0,0],[0.25,0],[0.5,0],[0.75,0],[1,0],[1,0.25],[1,0.5],[1,0.75],[1,1],[0.75,1],[0.5,1],[0.25,1],[0,1],[0,0.75],[0,0.5],[0,0.25]];outlineConnect=0;gradientColor=none;html=1;whiteSpace=wrap;fontSize=12;fontStyle=0;container=1;pointerEvents=0;collapsible=0;recursiveResize=0;shape=mxgraph.aws4.group;grIcon=mxgraph.aws4.group_region;strokeColor=#147EBA;fillColor=none;verticalAlign=top;align=left;spacingLeft=30;fontColor=#147EBA;dashed=1;" parent="z7foghyVsHtjKupNQYj4-272" vertex="1">
          <mxGeometry x="390" y="280" width="140" height="220" as="geometry" />
        </mxCell>
        <mxCell id="z7foghyVsHtjKupNQYj4-303" value="" style="sketch=0;outlineConnect=0;fontColor=#232F3E;gradientColor=none;fillColor=#D45B07;strokeColor=none;dashed=0;verticalLabelPosition=bottom;verticalAlign=top;align=center;html=1;fontSize=12;fontStyle=0;aspect=fixed;pointerEvents=1;shape=mxgraph.aws4.ec2_c6gn_instance;" parent="z7foghyVsHtjKupNQYj4-302" vertex="1">
          <mxGeometry x="79" y="88" width="30" height="30" as="geometry" />
        </mxCell>
        <mxCell id="z7foghyVsHtjKupNQYj4-304" value="" style="sketch=0;points=[[0,0,0],[0.25,0,0],[0.5,0,0],[0.75,0,0],[1,0,0],[0,1,0],[0.25,1,0],[0.5,1,0],[0.75,1,0],[1,1,0],[0,0.25,0],[0,0.5,0],[0,0.75,0],[1,0.25,0],[1,0.5,0],[1,0.75,0]];outlineConnect=0;fontColor=#232F3E;gradientColor=#4D72F3;gradientDirection=north;fillColor=#3334B9;strokeColor=#ffffff;dashed=0;verticalLabelPosition=bottom;verticalAlign=top;align=center;html=1;fontSize=12;fontStyle=0;aspect=fixed;shape=mxgraph.aws4.resourceIcon;resIcon=mxgraph.aws4.aurora;" parent="z7foghyVsHtjKupNQYj4-302" vertex="1">
          <mxGeometry x="81" y="154" width="28" height="28" as="geometry" />
        </mxCell>
        <mxCell id="z7foghyVsHtjKupNQYj4-305" value="" style="edgeStyle=orthogonalEdgeStyle;rounded=0;orthogonalLoop=1;jettySize=auto;html=1;" parent="z7foghyVsHtjKupNQYj4-302" source="z7foghyVsHtjKupNQYj4-303" target="z7foghyVsHtjKupNQYj4-304" edge="1">
          <mxGeometry relative="1" as="geometry" />
        </mxCell>
        <mxCell id="z7foghyVsHtjKupNQYj4-306" value="" style="edgeStyle=orthogonalEdgeStyle;rounded=0;orthogonalLoop=1;jettySize=auto;html=1;" parent="z7foghyVsHtjKupNQYj4-302" source="z7foghyVsHtjKupNQYj4-303" target="z7foghyVsHtjKupNQYj4-304" edge="1">
          <mxGeometry relative="1" as="geometry" />
        </mxCell>
        <mxCell id="z7foghyVsHtjKupNQYj4-307" value="" style="edgeStyle=orthogonalEdgeStyle;rounded=0;orthogonalLoop=1;jettySize=auto;html=1;" parent="z7foghyVsHtjKupNQYj4-302" source="z7foghyVsHtjKupNQYj4-303" target="z7foghyVsHtjKupNQYj4-304" edge="1">
          <mxGeometry relative="1" as="geometry" />
        </mxCell>
        <mxCell id="z7foghyVsHtjKupNQYj4-308" value="" style="edgeStyle=orthogonalEdgeStyle;rounded=0;orthogonalLoop=1;jettySize=auto;html=1;" parent="z7foghyVsHtjKupNQYj4-302" source="z7foghyVsHtjKupNQYj4-303" target="z7foghyVsHtjKupNQYj4-304" edge="1">
          <mxGeometry relative="1" as="geometry" />
        </mxCell>
        <mxCell id="z7foghyVsHtjKupNQYj4-309" value="" style="sketch=0;points=[[0,0,0],[0.25,0,0],[0.5,0,0],[0.75,0,0],[1,0,0],[0,1,0],[0.25,1,0],[0.5,1,0],[0.75,1,0],[1,1,0],[0,0.25,0],[0,0.5,0],[0,0.75,0],[1,0.25,0],[1,0.5,0],[1,0.75,0]];outlineConnect=0;fontColor=#232F3E;gradientColor=#4D72F3;gradientDirection=north;fillColor=#3334B9;strokeColor=#ffffff;dashed=0;verticalLabelPosition=bottom;verticalAlign=top;align=center;html=1;fontSize=12;fontStyle=0;aspect=fixed;shape=mxgraph.aws4.resourceIcon;resIcon=mxgraph.aws4.elasticache;" parent="z7foghyVsHtjKupNQYj4-302" vertex="1">
          <mxGeometry x="31" y="154" width="28" height="28" as="geometry" />
        </mxCell>
        <mxCell id="z7foghyVsHtjKupNQYj4-310" value="" style="edgeStyle=orthogonalEdgeStyle;rounded=0;orthogonalLoop=1;jettySize=auto;html=1;" parent="z7foghyVsHtjKupNQYj4-302" source="z7foghyVsHtjKupNQYj4-303" target="z7foghyVsHtjKupNQYj4-309" edge="1">
          <mxGeometry relative="1" as="geometry" />
        </mxCell>
        <mxCell id="z7foghyVsHtjKupNQYj4-311" style="edgeStyle=orthogonalEdgeStyle;rounded=0;orthogonalLoop=1;jettySize=auto;html=1;" parent="z7foghyVsHtjKupNQYj4-302" source="z7foghyVsHtjKupNQYj4-312" target="z7foghyVsHtjKupNQYj4-303" edge="1">
          <mxGeometry relative="1" as="geometry" />
        </mxCell>
        <mxCell id="z7foghyVsHtjKupNQYj4-312" value="" style="sketch=0;points=[[0,0,0],[0.25,0,0],[0.5,0,0],[0.75,0,0],[1,0,0],[0,1,0],[0.25,1,0],[0.5,1,0],[0.75,1,0],[1,1,0],[0,0.25,0],[0,0.5,0],[0,0.75,0],[1,0.25,0],[1,0.5,0],[1,0.75,0]];outlineConnect=0;fontColor=#232F3E;gradientColor=#945DF2;gradientDirection=north;fillColor=#5A30B5;strokeColor=#ffffff;dashed=0;verticalLabelPosition=bottom;verticalAlign=top;align=center;html=1;fontSize=12;fontStyle=0;aspect=fixed;shape=mxgraph.aws4.resourceIcon;resIcon=mxgraph.aws4.route_53;" parent="z7foghyVsHtjKupNQYj4-302" vertex="1">
          <mxGeometry x="81" y="38" width="25" height="25" as="geometry" />
        </mxCell>
        <mxCell id="z7foghyVsHtjKupNQYj4-313" value="VPC" style="sketch=0;outlineConnect=0;gradientColor=none;html=1;whiteSpace=wrap;fontSize=12;fontStyle=1;shape=mxgraph.aws4.group;grIcon=mxgraph.aws4.group_vpc;strokeColor=#879196;fillColor=none;verticalAlign=top;align=left;spacingLeft=30;fontColor=#879196;dashed=0;" parent="z7foghyVsHtjKupNQYj4-302" vertex="1">
          <mxGeometry x="10" y="30" width="120" height="180" as="geometry" />
        </mxCell>
        <mxCell id="z7foghyVsHtjKupNQYj4-314" style="edgeStyle=orthogonalEdgeStyle;rounded=0;orthogonalLoop=1;jettySize=auto;html=1;" parent="z7foghyVsHtjKupNQYj4-272" source="z7foghyVsHtjKupNQYj4-274" target="z7foghyVsHtjKupNQYj4-312" edge="1">
          <mxGeometry relative="1" as="geometry">
            <mxPoint x="483" y="350" as="targetPoint" />
          </mxGeometry>
        </mxCell>
        <mxCell id="z7foghyVsHtjKupNQYj4-315" style="edgeStyle=orthogonalEdgeStyle;rounded=0;orthogonalLoop=1;jettySize=auto;html=1;entryX=0.5;entryY=0;entryDx=0;entryDy=0;entryPerimeter=0;" parent="z7foghyVsHtjKupNQYj4-272" source="z7foghyVsHtjKupNQYj4-316" target="z7foghyVsHtjKupNQYj4-288" edge="1">
          <mxGeometry relative="1" as="geometry" />
        </mxCell>
        <mxCell id="z7foghyVsHtjKupNQYj4-316" value="" style="sketch=0;outlineConnect=0;fontColor=#232F3E;gradientColor=none;fillColor=#4D27AA;strokeColor=none;dashed=0;verticalLabelPosition=bottom;verticalAlign=top;align=center;html=1;fontSize=12;fontStyle=0;aspect=fixed;pointerEvents=1;shape=mxgraph.aws4.internet_gateway;" parent="z7foghyVsHtjKupNQYj4-272" vertex="1">
          <mxGeometry x="294.5" y="90" width="30" height="30" as="geometry" />
        </mxCell>
        <mxCell id="z7foghyVsHtjKupNQYj4-317" style="edgeStyle=orthogonalEdgeStyle;rounded=0;orthogonalLoop=1;jettySize=auto;html=1;" parent="z7foghyVsHtjKupNQYj4-272" source="z7foghyVsHtjKupNQYj4-318" target="z7foghyVsHtjKupNQYj4-316" edge="1">
          <mxGeometry relative="1" as="geometry" />
        </mxCell>
        <mxCell id="z7foghyVsHtjKupNQYj4-318" value="" style="sketch=0;outlineConnect=0;fontColor=#232F3E;gradientColor=none;fillColor=#4D27AA;strokeColor=none;dashed=0;verticalLabelPosition=bottom;verticalAlign=top;align=center;html=1;fontSize=12;fontStyle=0;aspect=fixed;pointerEvents=1;shape=mxgraph.aws4.network_access_control_list;" parent="z7foghyVsHtjKupNQYj4-272" vertex="1">
          <mxGeometry x="295.5" y="30" width="28" height="28" as="geometry" />
        </mxCell>
        <mxCell id="z7foghyVsHtjKupNQYj4-319" value="Africa" style="points=[[0,0],[0.25,0],[0.5,0],[0.75,0],[1,0],[1,0.25],[1,0.5],[1,0.75],[1,1],[0.75,1],[0.5,1],[0.25,1],[0,1],[0,0.75],[0,0.5],[0,0.25]];outlineConnect=0;gradientColor=none;html=1;whiteSpace=wrap;fontSize=12;fontStyle=0;container=1;pointerEvents=0;collapsible=0;recursiveResize=0;shape=mxgraph.aws4.group;grIcon=mxgraph.aws4.group_region;strokeColor=#147EBA;fillColor=none;verticalAlign=top;align=left;spacingLeft=30;fontColor=#147EBA;dashed=1;" parent="z7foghyVsHtjKupNQYj4-197" vertex="1">
          <mxGeometry x="1490" y="130" width="600" height="510" as="geometry" />
        </mxCell>
        <mxCell id="z7foghyVsHtjKupNQYj4-320" value="" style="edgeStyle=orthogonalEdgeStyle;rounded=0;orthogonalLoop=1;jettySize=auto;html=1;entryX=0.5;entryY=0;entryDx=0;entryDy=0;entryPerimeter=0;" parent="z7foghyVsHtjKupNQYj4-319" source="z7foghyVsHtjKupNQYj4-321" target="z7foghyVsHtjKupNQYj4-332" edge="1">
          <mxGeometry relative="1" as="geometry">
            <mxPoint x="313.02857142857147" y="340" as="targetPoint" />
          </mxGeometry>
        </mxCell>
        <mxCell id="z7foghyVsHtjKupNQYj4-321" value="" style="sketch=0;points=[[0,0,0],[0.25,0,0],[0.5,0,0],[0.75,0,0],[1,0,0],[0,1,0],[0.25,1,0],[0.5,1,0],[0.75,1,0],[1,1,0],[0,0.25,0],[0,0.5,0],[0,0.75,0],[1,0.25,0],[1,0.5,0],[1,0.75,0]];outlineConnect=0;fontColor=#232F3E;gradientColor=#945DF2;gradientDirection=north;fillColor=#5A30B5;strokeColor=#ffffff;dashed=0;verticalLabelPosition=bottom;verticalAlign=top;align=center;html=1;fontSize=12;fontStyle=0;aspect=fixed;shape=mxgraph.aws4.resourceIcon;resIcon=mxgraph.aws4.elastic_load_balancing;" parent="z7foghyVsHtjKupNQYj4-319" vertex="1">
          <mxGeometry x="297" y="185" width="25" height="25" as="geometry" />
        </mxCell>
        <mxCell id="z7foghyVsHtjKupNQYj4-322" value="Asia_r2" style="points=[[0,0],[0.25,0],[0.5,0],[0.75,0],[1,0],[1,0.25],[1,0.5],[1,0.75],[1,1],[0.75,1],[0.5,1],[0.25,1],[0,1],[0,0.75],[0,0.5],[0,0.25]];outlineConnect=0;gradientColor=none;html=1;whiteSpace=wrap;fontSize=12;fontStyle=0;container=1;pointerEvents=0;collapsible=0;recursiveResize=0;shape=mxgraph.aws4.group;grIcon=mxgraph.aws4.group_region;strokeColor=#147EBA;fillColor=none;verticalAlign=top;align=left;spacingLeft=30;fontColor=#147EBA;dashed=1;" parent="z7foghyVsHtjKupNQYj4-319" vertex="1">
          <mxGeometry x="220" y="280" width="140" height="220" as="geometry" />
        </mxCell>
        <mxCell id="z7foghyVsHtjKupNQYj4-323" value="" style="sketch=0;outlineConnect=0;fontColor=#232F3E;gradientColor=none;fillColor=#D45B07;strokeColor=none;dashed=0;verticalLabelPosition=bottom;verticalAlign=top;align=center;html=1;fontSize=12;fontStyle=0;aspect=fixed;pointerEvents=1;shape=mxgraph.aws4.ec2_c6gn_instance;" parent="z7foghyVsHtjKupNQYj4-322" vertex="1">
          <mxGeometry x="75" y="88" width="30" height="30" as="geometry" />
        </mxCell>
        <mxCell id="z7foghyVsHtjKupNQYj4-324" value="" style="sketch=0;points=[[0,0,0],[0.25,0,0],[0.5,0,0],[0.75,0,0],[1,0,0],[0,1,0],[0.25,1,0],[0.5,1,0],[0.75,1,0],[1,1,0],[0,0.25,0],[0,0.5,0],[0,0.75,0],[1,0.25,0],[1,0.5,0],[1,0.75,0]];outlineConnect=0;fontColor=#232F3E;gradientColor=#4D72F3;gradientDirection=north;fillColor=#3334B9;strokeColor=#ffffff;dashed=0;verticalLabelPosition=bottom;verticalAlign=top;align=center;html=1;fontSize=12;fontStyle=0;aspect=fixed;shape=mxgraph.aws4.resourceIcon;resIcon=mxgraph.aws4.aurora;" parent="z7foghyVsHtjKupNQYj4-322" vertex="1">
          <mxGeometry x="77" y="154" width="28" height="28" as="geometry" />
        </mxCell>
        <mxCell id="z7foghyVsHtjKupNQYj4-325" value="" style="edgeStyle=orthogonalEdgeStyle;rounded=0;orthogonalLoop=1;jettySize=auto;html=1;" parent="z7foghyVsHtjKupNQYj4-322" source="z7foghyVsHtjKupNQYj4-323" target="z7foghyVsHtjKupNQYj4-324" edge="1">
          <mxGeometry relative="1" as="geometry" />
        </mxCell>
        <mxCell id="z7foghyVsHtjKupNQYj4-326" value="" style="edgeStyle=orthogonalEdgeStyle;rounded=0;orthogonalLoop=1;jettySize=auto;html=1;" parent="z7foghyVsHtjKupNQYj4-322" source="z7foghyVsHtjKupNQYj4-323" target="z7foghyVsHtjKupNQYj4-324" edge="1">
          <mxGeometry relative="1" as="geometry" />
        </mxCell>
        <mxCell id="z7foghyVsHtjKupNQYj4-327" value="" style="edgeStyle=orthogonalEdgeStyle;rounded=0;orthogonalLoop=1;jettySize=auto;html=1;" parent="z7foghyVsHtjKupNQYj4-322" source="z7foghyVsHtjKupNQYj4-323" target="z7foghyVsHtjKupNQYj4-324" edge="1">
          <mxGeometry relative="1" as="geometry" />
        </mxCell>
        <mxCell id="z7foghyVsHtjKupNQYj4-328" value="" style="edgeStyle=orthogonalEdgeStyle;rounded=0;orthogonalLoop=1;jettySize=auto;html=1;" parent="z7foghyVsHtjKupNQYj4-322" source="z7foghyVsHtjKupNQYj4-323" target="z7foghyVsHtjKupNQYj4-324" edge="1">
          <mxGeometry relative="1" as="geometry" />
        </mxCell>
        <mxCell id="z7foghyVsHtjKupNQYj4-329" value="" style="sketch=0;points=[[0,0,0],[0.25,0,0],[0.5,0,0],[0.75,0,0],[1,0,0],[0,1,0],[0.25,1,0],[0.5,1,0],[0.75,1,0],[1,1,0],[0,0.25,0],[0,0.5,0],[0,0.75,0],[1,0.25,0],[1,0.5,0],[1,0.75,0]];outlineConnect=0;fontColor=#232F3E;gradientColor=#4D72F3;gradientDirection=north;fillColor=#3334B9;strokeColor=#ffffff;dashed=0;verticalLabelPosition=bottom;verticalAlign=top;align=center;html=1;fontSize=12;fontStyle=0;aspect=fixed;shape=mxgraph.aws4.resourceIcon;resIcon=mxgraph.aws4.elasticache;" parent="z7foghyVsHtjKupNQYj4-322" vertex="1">
          <mxGeometry x="27" y="154" width="28" height="28" as="geometry" />
        </mxCell>
        <mxCell id="z7foghyVsHtjKupNQYj4-330" value="" style="edgeStyle=orthogonalEdgeStyle;rounded=0;orthogonalLoop=1;jettySize=auto;html=1;" parent="z7foghyVsHtjKupNQYj4-322" source="z7foghyVsHtjKupNQYj4-323" target="z7foghyVsHtjKupNQYj4-329" edge="1">
          <mxGeometry relative="1" as="geometry" />
        </mxCell>
        <mxCell id="z7foghyVsHtjKupNQYj4-331" style="edgeStyle=orthogonalEdgeStyle;rounded=0;orthogonalLoop=1;jettySize=auto;html=1;" parent="z7foghyVsHtjKupNQYj4-322" source="z7foghyVsHtjKupNQYj4-332" target="z7foghyVsHtjKupNQYj4-323" edge="1">
          <mxGeometry relative="1" as="geometry" />
        </mxCell>
        <mxCell id="z7foghyVsHtjKupNQYj4-332" value="" style="sketch=0;points=[[0,0,0],[0.25,0,0],[0.5,0,0],[0.75,0,0],[1,0,0],[0,1,0],[0.25,1,0],[0.5,1,0],[0.75,1,0],[1,1,0],[0,0.25,0],[0,0.5,0],[0,0.75,0],[1,0.25,0],[1,0.5,0],[1,0.75,0]];outlineConnect=0;fontColor=#232F3E;gradientColor=#945DF2;gradientDirection=north;fillColor=#5A30B5;strokeColor=#ffffff;dashed=0;verticalLabelPosition=bottom;verticalAlign=top;align=center;html=1;fontSize=12;fontStyle=0;aspect=fixed;shape=mxgraph.aws4.resourceIcon;resIcon=mxgraph.aws4.route_53;" parent="z7foghyVsHtjKupNQYj4-322" vertex="1">
          <mxGeometry x="77" y="38" width="25" height="25" as="geometry" />
        </mxCell>
        <mxCell id="z7foghyVsHtjKupNQYj4-333" value="VPC" style="sketch=0;outlineConnect=0;gradientColor=none;html=1;whiteSpace=wrap;fontSize=12;fontStyle=0;shape=mxgraph.aws4.group;grIcon=mxgraph.aws4.group_vpc;strokeColor=#879196;fillColor=none;verticalAlign=top;align=left;spacingLeft=30;fontColor=#879196;dashed=0;" parent="z7foghyVsHtjKupNQYj4-322" vertex="1">
          <mxGeometry x="5" y="30" width="130" height="180" as="geometry" />
        </mxCell>
        <mxCell id="z7foghyVsHtjKupNQYj4-334" value="" style="edgeStyle=orthogonalEdgeStyle;rounded=0;orthogonalLoop=1;jettySize=auto;html=1;" parent="z7foghyVsHtjKupNQYj4-319" source="z7foghyVsHtjKupNQYj4-335" target="z7foghyVsHtjKupNQYj4-321" edge="1">
          <mxGeometry relative="1" as="geometry" />
        </mxCell>
        <mxCell id="z7foghyVsHtjKupNQYj4-335" value="" style="sketch=0;points=[[0,0,0],[0.25,0,0],[0.5,0,0],[0.75,0,0],[1,0,0],[0,1,0],[0.25,1,0],[0.5,1,0],[0.75,1,0],[1,1,0],[0,0.25,0],[0,0.5,0],[0,0.75,0],[1,0.25,0],[1,0.5,0],[1,0.75,0]];outlineConnect=0;fontColor=#232F3E;gradientColor=#945DF2;gradientDirection=north;fillColor=#5A30B5;strokeColor=#ffffff;dashed=0;verticalLabelPosition=bottom;verticalAlign=top;align=center;html=1;fontSize=12;fontStyle=0;aspect=fixed;shape=mxgraph.aws4.resourceIcon;resIcon=mxgraph.aws4.route_53;" parent="z7foghyVsHtjKupNQYj4-319" vertex="1">
          <mxGeometry x="297" y="140" width="25" height="25" as="geometry" />
        </mxCell>
        <mxCell id="z7foghyVsHtjKupNQYj4-336" value="Asia_r1" style="points=[[0,0],[0.25,0],[0.5,0],[0.75,0],[1,0],[1,0.25],[1,0.5],[1,0.75],[1,1],[0.75,1],[0.5,1],[0.25,1],[0,1],[0,0.75],[0,0.5],[0,0.25]];outlineConnect=0;gradientColor=none;html=1;whiteSpace=wrap;fontSize=12;fontStyle=0;container=1;pointerEvents=0;collapsible=0;recursiveResize=0;shape=mxgraph.aws4.group;grIcon=mxgraph.aws4.group_region;strokeColor=#147EBA;fillColor=none;verticalAlign=top;align=left;spacingLeft=30;fontColor=#147EBA;dashed=1;" parent="z7foghyVsHtjKupNQYj4-319" vertex="1">
          <mxGeometry x="50" y="280" width="140" height="220" as="geometry" />
        </mxCell>
        <mxCell id="z7foghyVsHtjKupNQYj4-337" value="" style="edgeStyle=orthogonalEdgeStyle;rounded=0;orthogonalLoop=1;jettySize=auto;html=1;" parent="z7foghyVsHtjKupNQYj4-336" source="z7foghyVsHtjKupNQYj4-341" target="z7foghyVsHtjKupNQYj4-342" edge="1">
          <mxGeometry relative="1" as="geometry" />
        </mxCell>
        <mxCell id="z7foghyVsHtjKupNQYj4-338" value="" style="edgeStyle=orthogonalEdgeStyle;rounded=0;orthogonalLoop=1;jettySize=auto;html=1;" parent="z7foghyVsHtjKupNQYj4-336" source="z7foghyVsHtjKupNQYj4-341" target="z7foghyVsHtjKupNQYj4-342" edge="1">
          <mxGeometry relative="1" as="geometry" />
        </mxCell>
        <mxCell id="z7foghyVsHtjKupNQYj4-339" value="" style="edgeStyle=orthogonalEdgeStyle;rounded=0;orthogonalLoop=1;jettySize=auto;html=1;" parent="z7foghyVsHtjKupNQYj4-336" source="z7foghyVsHtjKupNQYj4-341" target="z7foghyVsHtjKupNQYj4-342" edge="1">
          <mxGeometry relative="1" as="geometry" />
        </mxCell>
        <mxCell id="z7foghyVsHtjKupNQYj4-340" value="" style="edgeStyle=orthogonalEdgeStyle;rounded=0;orthogonalLoop=1;jettySize=auto;html=1;" parent="z7foghyVsHtjKupNQYj4-336" source="z7foghyVsHtjKupNQYj4-341" target="z7foghyVsHtjKupNQYj4-342" edge="1">
          <mxGeometry relative="1" as="geometry" />
        </mxCell>
        <mxCell id="z7foghyVsHtjKupNQYj4-341" value="" style="sketch=0;outlineConnect=0;fontColor=#232F3E;gradientColor=none;fillColor=#D45B07;strokeColor=none;dashed=0;verticalLabelPosition=bottom;verticalAlign=top;align=center;html=1;fontSize=12;fontStyle=0;aspect=fixed;pointerEvents=1;shape=mxgraph.aws4.ec2_c6gn_instance;" parent="z7foghyVsHtjKupNQYj4-336" vertex="1">
          <mxGeometry x="78" y="88" width="30" height="30" as="geometry" />
        </mxCell>
        <mxCell id="z7foghyVsHtjKupNQYj4-342" value="" style="sketch=0;points=[[0,0,0],[0.25,0,0],[0.5,0,0],[0.75,0,0],[1,0,0],[0,1,0],[0.25,1,0],[0.5,1,0],[0.75,1,0],[1,1,0],[0,0.25,0],[0,0.5,0],[0,0.75,0],[1,0.25,0],[1,0.5,0],[1,0.75,0]];outlineConnect=0;fontColor=#232F3E;gradientColor=#4D72F3;gradientDirection=north;fillColor=#3334B9;strokeColor=#ffffff;dashed=0;verticalLabelPosition=bottom;verticalAlign=top;align=center;html=1;fontSize=12;fontStyle=0;aspect=fixed;shape=mxgraph.aws4.resourceIcon;resIcon=mxgraph.aws4.aurora;" parent="z7foghyVsHtjKupNQYj4-336" vertex="1">
          <mxGeometry x="80" y="154" width="28" height="28" as="geometry" />
        </mxCell>
        <mxCell id="z7foghyVsHtjKupNQYj4-343" value="" style="sketch=0;points=[[0,0,0],[0.25,0,0],[0.5,0,0],[0.75,0,0],[1,0,0],[0,1,0],[0.25,1,0],[0.5,1,0],[0.75,1,0],[1,1,0],[0,0.25,0],[0,0.5,0],[0,0.75,0],[1,0.25,0],[1,0.5,0],[1,0.75,0]];outlineConnect=0;fontColor=#232F3E;gradientColor=#4D72F3;gradientDirection=north;fillColor=#3334B9;strokeColor=#ffffff;dashed=0;verticalLabelPosition=bottom;verticalAlign=top;align=center;html=1;fontSize=12;fontStyle=0;aspect=fixed;shape=mxgraph.aws4.resourceIcon;resIcon=mxgraph.aws4.elasticache;" parent="z7foghyVsHtjKupNQYj4-336" vertex="1">
          <mxGeometry x="30" y="154" width="28" height="28" as="geometry" />
        </mxCell>
        <mxCell id="z7foghyVsHtjKupNQYj4-344" value="" style="edgeStyle=orthogonalEdgeStyle;rounded=0;orthogonalLoop=1;jettySize=auto;html=1;" parent="z7foghyVsHtjKupNQYj4-336" source="z7foghyVsHtjKupNQYj4-341" target="z7foghyVsHtjKupNQYj4-343" edge="1">
          <mxGeometry relative="1" as="geometry" />
        </mxCell>
        <mxCell id="z7foghyVsHtjKupNQYj4-345" style="edgeStyle=orthogonalEdgeStyle;rounded=0;orthogonalLoop=1;jettySize=auto;html=1;" parent="z7foghyVsHtjKupNQYj4-336" source="z7foghyVsHtjKupNQYj4-346" target="z7foghyVsHtjKupNQYj4-341" edge="1">
          <mxGeometry relative="1" as="geometry" />
        </mxCell>
        <mxCell id="z7foghyVsHtjKupNQYj4-346" value="" style="sketch=0;points=[[0,0,0],[0.25,0,0],[0.5,0,0],[0.75,0,0],[1,0,0],[0,1,0],[0.25,1,0],[0.5,1,0],[0.75,1,0],[1,1,0],[0,0.25,0],[0,0.5,0],[0,0.75,0],[1,0.25,0],[1,0.5,0],[1,0.75,0]];outlineConnect=0;fontColor=#232F3E;gradientColor=#945DF2;gradientDirection=north;fillColor=#5A30B5;strokeColor=#ffffff;dashed=0;verticalLabelPosition=bottom;verticalAlign=top;align=center;html=1;fontSize=12;fontStyle=0;aspect=fixed;shape=mxgraph.aws4.resourceIcon;resIcon=mxgraph.aws4.route_53;" parent="z7foghyVsHtjKupNQYj4-336" vertex="1">
          <mxGeometry x="80" y="38" width="25" height="25" as="geometry" />
        </mxCell>
        <mxCell id="z7foghyVsHtjKupNQYj4-347" value="VPC" style="sketch=0;outlineConnect=0;gradientColor=none;html=1;whiteSpace=wrap;fontSize=12;fontStyle=0;shape=mxgraph.aws4.group;grIcon=mxgraph.aws4.group_vpc;strokeColor=#879196;fillColor=none;verticalAlign=top;align=left;spacingLeft=30;fontColor=#879196;dashed=0;" parent="z7foghyVsHtjKupNQYj4-336" vertex="1">
          <mxGeometry x="5" y="30" width="130" height="180" as="geometry" />
        </mxCell>
        <mxCell id="z7foghyVsHtjKupNQYj4-348" value="" style="edgeStyle=orthogonalEdgeStyle;rounded=0;orthogonalLoop=1;jettySize=auto;html=1;entryX=0.5;entryY=0;entryDx=0;entryDy=0;entryPerimeter=0;" parent="z7foghyVsHtjKupNQYj4-319" source="z7foghyVsHtjKupNQYj4-321" target="z7foghyVsHtjKupNQYj4-346" edge="1">
          <mxGeometry relative="1" as="geometry" />
        </mxCell>
        <mxCell id="z7foghyVsHtjKupNQYj4-349" value="Asia_r3" style="points=[[0,0],[0.25,0],[0.5,0],[0.75,0],[1,0],[1,0.25],[1,0.5],[1,0.75],[1,1],[0.75,1],[0.5,1],[0.25,1],[0,1],[0,0.75],[0,0.5],[0,0.25]];outlineConnect=0;gradientColor=none;html=1;whiteSpace=wrap;fontSize=12;fontStyle=0;container=1;pointerEvents=0;collapsible=0;recursiveResize=0;shape=mxgraph.aws4.group;grIcon=mxgraph.aws4.group_region;strokeColor=#147EBA;fillColor=none;verticalAlign=top;align=left;spacingLeft=30;fontColor=#147EBA;dashed=1;" parent="z7foghyVsHtjKupNQYj4-319" vertex="1">
          <mxGeometry x="390" y="280" width="140" height="220" as="geometry" />
        </mxCell>
        <mxCell id="z7foghyVsHtjKupNQYj4-350" value="" style="sketch=0;outlineConnect=0;fontColor=#232F3E;gradientColor=none;fillColor=#D45B07;strokeColor=none;dashed=0;verticalLabelPosition=bottom;verticalAlign=top;align=center;html=1;fontSize=12;fontStyle=0;aspect=fixed;pointerEvents=1;shape=mxgraph.aws4.ec2_c6gn_instance;" parent="z7foghyVsHtjKupNQYj4-349" vertex="1">
          <mxGeometry x="79" y="88" width="30" height="30" as="geometry" />
        </mxCell>
        <mxCell id="z7foghyVsHtjKupNQYj4-351" value="" style="sketch=0;points=[[0,0,0],[0.25,0,0],[0.5,0,0],[0.75,0,0],[1,0,0],[0,1,0],[0.25,1,0],[0.5,1,0],[0.75,1,0],[1,1,0],[0,0.25,0],[0,0.5,0],[0,0.75,0],[1,0.25,0],[1,0.5,0],[1,0.75,0]];outlineConnect=0;fontColor=#232F3E;gradientColor=#4D72F3;gradientDirection=north;fillColor=#3334B9;strokeColor=#ffffff;dashed=0;verticalLabelPosition=bottom;verticalAlign=top;align=center;html=1;fontSize=12;fontStyle=0;aspect=fixed;shape=mxgraph.aws4.resourceIcon;resIcon=mxgraph.aws4.aurora;" parent="z7foghyVsHtjKupNQYj4-349" vertex="1">
          <mxGeometry x="81" y="154" width="28" height="28" as="geometry" />
        </mxCell>
        <mxCell id="z7foghyVsHtjKupNQYj4-352" value="" style="edgeStyle=orthogonalEdgeStyle;rounded=0;orthogonalLoop=1;jettySize=auto;html=1;" parent="z7foghyVsHtjKupNQYj4-349" source="z7foghyVsHtjKupNQYj4-350" target="z7foghyVsHtjKupNQYj4-351" edge="1">
          <mxGeometry relative="1" as="geometry" />
        </mxCell>
        <mxCell id="z7foghyVsHtjKupNQYj4-353" value="" style="edgeStyle=orthogonalEdgeStyle;rounded=0;orthogonalLoop=1;jettySize=auto;html=1;" parent="z7foghyVsHtjKupNQYj4-349" source="z7foghyVsHtjKupNQYj4-350" target="z7foghyVsHtjKupNQYj4-351" edge="1">
          <mxGeometry relative="1" as="geometry" />
        </mxCell>
        <mxCell id="z7foghyVsHtjKupNQYj4-354" value="" style="edgeStyle=orthogonalEdgeStyle;rounded=0;orthogonalLoop=1;jettySize=auto;html=1;" parent="z7foghyVsHtjKupNQYj4-349" source="z7foghyVsHtjKupNQYj4-350" target="z7foghyVsHtjKupNQYj4-351" edge="1">
          <mxGeometry relative="1" as="geometry" />
        </mxCell>
        <mxCell id="z7foghyVsHtjKupNQYj4-355" value="" style="edgeStyle=orthogonalEdgeStyle;rounded=0;orthogonalLoop=1;jettySize=auto;html=1;" parent="z7foghyVsHtjKupNQYj4-349" source="z7foghyVsHtjKupNQYj4-350" target="z7foghyVsHtjKupNQYj4-351" edge="1">
          <mxGeometry relative="1" as="geometry" />
        </mxCell>
        <mxCell id="z7foghyVsHtjKupNQYj4-356" value="" style="sketch=0;points=[[0,0,0],[0.25,0,0],[0.5,0,0],[0.75,0,0],[1,0,0],[0,1,0],[0.25,1,0],[0.5,1,0],[0.75,1,0],[1,1,0],[0,0.25,0],[0,0.5,0],[0,0.75,0],[1,0.25,0],[1,0.5,0],[1,0.75,0]];outlineConnect=0;fontColor=#232F3E;gradientColor=#4D72F3;gradientDirection=north;fillColor=#3334B9;strokeColor=#ffffff;dashed=0;verticalLabelPosition=bottom;verticalAlign=top;align=center;html=1;fontSize=12;fontStyle=0;aspect=fixed;shape=mxgraph.aws4.resourceIcon;resIcon=mxgraph.aws4.elasticache;" parent="z7foghyVsHtjKupNQYj4-349" vertex="1">
          <mxGeometry x="31" y="154" width="28" height="28" as="geometry" />
        </mxCell>
        <mxCell id="z7foghyVsHtjKupNQYj4-357" value="" style="edgeStyle=orthogonalEdgeStyle;rounded=0;orthogonalLoop=1;jettySize=auto;html=1;" parent="z7foghyVsHtjKupNQYj4-349" source="z7foghyVsHtjKupNQYj4-350" target="z7foghyVsHtjKupNQYj4-356" edge="1">
          <mxGeometry relative="1" as="geometry" />
        </mxCell>
        <mxCell id="z7foghyVsHtjKupNQYj4-358" style="edgeStyle=orthogonalEdgeStyle;rounded=0;orthogonalLoop=1;jettySize=auto;html=1;" parent="z7foghyVsHtjKupNQYj4-349" source="z7foghyVsHtjKupNQYj4-359" target="z7foghyVsHtjKupNQYj4-350" edge="1">
          <mxGeometry relative="1" as="geometry" />
        </mxCell>
        <mxCell id="z7foghyVsHtjKupNQYj4-359" value="" style="sketch=0;points=[[0,0,0],[0.25,0,0],[0.5,0,0],[0.75,0,0],[1,0,0],[0,1,0],[0.25,1,0],[0.5,1,0],[0.75,1,0],[1,1,0],[0,0.25,0],[0,0.5,0],[0,0.75,0],[1,0.25,0],[1,0.5,0],[1,0.75,0]];outlineConnect=0;fontColor=#232F3E;gradientColor=#945DF2;gradientDirection=north;fillColor=#5A30B5;strokeColor=#ffffff;dashed=0;verticalLabelPosition=bottom;verticalAlign=top;align=center;html=1;fontSize=12;fontStyle=0;aspect=fixed;shape=mxgraph.aws4.resourceIcon;resIcon=mxgraph.aws4.route_53;" parent="z7foghyVsHtjKupNQYj4-349" vertex="1">
          <mxGeometry x="81" y="38" width="25" height="25" as="geometry" />
        </mxCell>
        <mxCell id="z7foghyVsHtjKupNQYj4-360" value="VPC" style="sketch=0;outlineConnect=0;gradientColor=none;html=1;whiteSpace=wrap;fontSize=12;fontStyle=1;shape=mxgraph.aws4.group;grIcon=mxgraph.aws4.group_vpc;strokeColor=#879196;fillColor=none;verticalAlign=top;align=left;spacingLeft=30;fontColor=#879196;dashed=0;" parent="z7foghyVsHtjKupNQYj4-349" vertex="1">
          <mxGeometry x="10" y="30" width="120" height="180" as="geometry" />
        </mxCell>
        <mxCell id="z7foghyVsHtjKupNQYj4-361" style="edgeStyle=orthogonalEdgeStyle;rounded=0;orthogonalLoop=1;jettySize=auto;html=1;" parent="z7foghyVsHtjKupNQYj4-319" source="z7foghyVsHtjKupNQYj4-321" target="z7foghyVsHtjKupNQYj4-359" edge="1">
          <mxGeometry relative="1" as="geometry">
            <mxPoint x="483" y="350" as="targetPoint" />
          </mxGeometry>
        </mxCell>
        <mxCell id="z7foghyVsHtjKupNQYj4-362" style="edgeStyle=orthogonalEdgeStyle;rounded=0;orthogonalLoop=1;jettySize=auto;html=1;entryX=0.5;entryY=0;entryDx=0;entryDy=0;entryPerimeter=0;" parent="z7foghyVsHtjKupNQYj4-319" source="z7foghyVsHtjKupNQYj4-363" target="z7foghyVsHtjKupNQYj4-335" edge="1">
          <mxGeometry relative="1" as="geometry" />
        </mxCell>
        <mxCell id="z7foghyVsHtjKupNQYj4-363" value="" style="sketch=0;outlineConnect=0;fontColor=#232F3E;gradientColor=none;fillColor=#4D27AA;strokeColor=none;dashed=0;verticalLabelPosition=bottom;verticalAlign=top;align=center;html=1;fontSize=12;fontStyle=0;aspect=fixed;pointerEvents=1;shape=mxgraph.aws4.internet_gateway;" parent="z7foghyVsHtjKupNQYj4-319" vertex="1">
          <mxGeometry x="294.5" y="90" width="30" height="30" as="geometry" />
        </mxCell>
        <mxCell id="z7foghyVsHtjKupNQYj4-364" style="edgeStyle=orthogonalEdgeStyle;rounded=0;orthogonalLoop=1;jettySize=auto;html=1;" parent="z7foghyVsHtjKupNQYj4-319" source="z7foghyVsHtjKupNQYj4-365" target="z7foghyVsHtjKupNQYj4-363" edge="1">
          <mxGeometry relative="1" as="geometry" />
        </mxCell>
        <mxCell id="z7foghyVsHtjKupNQYj4-365" value="" style="sketch=0;outlineConnect=0;fontColor=#232F3E;gradientColor=none;fillColor=#4D27AA;strokeColor=none;dashed=0;verticalLabelPosition=bottom;verticalAlign=top;align=center;html=1;fontSize=12;fontStyle=0;aspect=fixed;pointerEvents=1;shape=mxgraph.aws4.network_access_control_list;" parent="z7foghyVsHtjKupNQYj4-319" vertex="1">
          <mxGeometry x="295.5" y="30" width="28" height="28" as="geometry" />
        </mxCell>
        <mxCell id="z7foghyVsHtjKupNQYj4-374" style="edgeStyle=orthogonalEdgeStyle;rounded=0;orthogonalLoop=1;jettySize=auto;html=1;" parent="z7foghyVsHtjKupNQYj4-197" source="z7foghyVsHtjKupNQYj4-368" target="z7foghyVsHtjKupNQYj4-270" edge="1">
          <mxGeometry relative="1" as="geometry" />
        </mxCell>
        <mxCell id="z7foghyVsHtjKupNQYj4-375" style="edgeStyle=orthogonalEdgeStyle;rounded=0;orthogonalLoop=1;jettySize=auto;html=1;" parent="z7foghyVsHtjKupNQYj4-197" source="z7foghyVsHtjKupNQYj4-368" target="z7foghyVsHtjKupNQYj4-365" edge="1">
          <mxGeometry relative="1" as="geometry" />
        </mxCell>
        <mxCell id="z7foghyVsHtjKupNQYj4-376" style="edgeStyle=orthogonalEdgeStyle;rounded=0;orthogonalLoop=1;jettySize=auto;html=1;" parent="z7foghyVsHtjKupNQYj4-197" source="z7foghyVsHtjKupNQYj4-368" target="z7foghyVsHtjKupNQYj4-318" edge="1">
          <mxGeometry relative="1" as="geometry" />
        </mxCell>
        <mxCell id="z7foghyVsHtjKupNQYj4-368" value="" style="sketch=0;points=[[0,0,0],[0.25,0,0],[0.5,0,0],[0.75,0,0],[1,0,0],[0,1,0],[0.25,1,0],[0.5,1,0],[0.75,1,0],[1,1,0],[0,0.25,0],[0,0.5,0],[0,0.75,0],[1,0.25,0],[1,0.5,0],[1,0.75,0]];outlineConnect=0;fontColor=#232F3E;gradientColor=#945DF2;gradientDirection=north;fillColor=#5A30B5;strokeColor=#ffffff;dashed=0;verticalLabelPosition=bottom;verticalAlign=top;align=center;html=1;fontSize=12;fontStyle=0;aspect=fixed;shape=mxgraph.aws4.resourceIcon;resIcon=mxgraph.aws4.elastic_load_balancing;" parent="z7foghyVsHtjKupNQYj4-197" vertex="1">
          <mxGeometry x="1147" y="70" width="25" height="25" as="geometry" />
        </mxCell>
        <mxCell id="z7foghyVsHtjKupNQYj4-198" value="Costumer network" style="points=[[0,0],[0.25,0],[0.5,0],[0.75,0],[1,0],[1,0.25],[1,0.5],[1,0.75],[1,1],[0.75,1],[0.5,1],[0.25,1],[0,1],[0,0.75],[0,0.5],[0,0.25]];outlineConnect=0;gradientColor=none;html=1;whiteSpace=wrap;fontSize=12;fontStyle=0;container=1;pointerEvents=0;collapsible=0;recursiveResize=0;shape=mxgraph.aws4.group;grIcon=mxgraph.aws4.group_corporate_data_center;strokeColor=#5A6C86;fillColor=none;verticalAlign=top;align=left;spacingLeft=30;fontColor=#5A6C86;dashed=0;" parent="1" vertex="1">
          <mxGeometry x="50" y="-549" width="250" height="199" as="geometry" />
        </mxCell>
        <mxCell id="z7foghyVsHtjKupNQYj4-194" value="" style="sketch=0;aspect=fixed;pointerEvents=1;shadow=0;dashed=0;html=1;strokeColor=none;labelPosition=center;verticalLabelPosition=bottom;verticalAlign=top;align=center;fillColor=#00188D;shape=mxgraph.mscae.enterprise.client_application" parent="z7foghyVsHtjKupNQYj4-198" vertex="1">
          <mxGeometry x="17" y="40" width="50" height="32" as="geometry" />
        </mxCell>
        <mxCell id="z7foghyVsHtjKupNQYj4-202" value="" style="sketch=0;aspect=fixed;pointerEvents=1;shadow=0;dashed=0;html=1;strokeColor=none;labelPosition=center;verticalLabelPosition=bottom;verticalAlign=top;align=center;fillColor=#00188D;shape=mxgraph.mscae.enterprise.client_application" parent="z7foghyVsHtjKupNQYj4-198" vertex="1">
          <mxGeometry x="170" y="40" width="50" height="32" as="geometry" />
        </mxCell>
        <mxCell id="z7foghyVsHtjKupNQYj4-203" value="" style="sketch=0;aspect=fixed;pointerEvents=1;shadow=0;dashed=0;html=1;strokeColor=none;labelPosition=center;verticalLabelPosition=bottom;verticalAlign=top;align=center;fillColor=#00188D;shape=mxgraph.mscae.enterprise.client_application" parent="z7foghyVsHtjKupNQYj4-198" vertex="1">
          <mxGeometry x="170" y="130" width="50" height="32" as="geometry" />
        </mxCell>
        <mxCell id="z7foghyVsHtjKupNQYj4-204" value="" style="sketch=0;aspect=fixed;pointerEvents=1;shadow=0;dashed=0;html=1;strokeColor=none;labelPosition=center;verticalLabelPosition=bottom;verticalAlign=top;align=center;fillColor=#00188D;shape=mxgraph.mscae.enterprise.client_application" parent="z7foghyVsHtjKupNQYj4-198" vertex="1">
          <mxGeometry x="20" y="130" width="50" height="32" as="geometry" />
        </mxCell>
        <mxCell id="z7foghyVsHtjKupNQYj4-188" value="" style="sketch=0;outlineConnect=0;fontColor=#232F3E;gradientColor=none;fillColor=#4D27AA;strokeColor=none;dashed=0;verticalLabelPosition=bottom;verticalAlign=top;align=center;html=1;fontSize=12;fontStyle=0;aspect=fixed;pointerEvents=1;shape=mxgraph.aws4.vpn_gateway;" parent="1" vertex="1">
          <mxGeometry x="370.5" y="-350" width="40" height="40" as="geometry" />
        </mxCell>
        <mxCell id="z7foghyVsHtjKupNQYj4-190" style="edgeStyle=orthogonalEdgeStyle;rounded=0;orthogonalLoop=1;jettySize=auto;html=1;startArrow=none;" parent="1" source="z7foghyVsHtjKupNQYj4-187" target="z7foghyVsHtjKupNQYj4-184" edge="1">
          <mxGeometry relative="1" as="geometry" />
        </mxCell>
        <mxCell id="z7foghyVsHtjKupNQYj4-220" style="edgeStyle=orthogonalEdgeStyle;rounded=0;orthogonalLoop=1;jettySize=auto;html=1;" parent="1" source="z7foghyVsHtjKupNQYj4-212" edge="1">
          <mxGeometry relative="1" as="geometry">
            <mxPoint x="390" y="-349.99909097107" as="targetPoint" />
          </mxGeometry>
        </mxCell>
        <mxCell id="z7foghyVsHtjKupNQYj4-212" value="" style="sketch=0;points=[[0,0,0],[0.25,0,0],[0.5,0,0],[0.75,0,0],[1,0,0],[0,1,0],[0.25,1,0],[0.5,1,0],[0.75,1,0],[1,1,0],[0,0.25,0],[0,0.5,0],[0,0.75,0],[1,0.25,0],[1,0.5,0],[1,0.75,0]];outlineConnect=0;fontColor=#232F3E;gradientColor=#945DF2;gradientDirection=north;fillColor=#5A30B5;strokeColor=#ffffff;dashed=0;verticalLabelPosition=bottom;verticalAlign=top;align=center;html=1;fontSize=12;fontStyle=0;aspect=fixed;shape=mxgraph.aws4.resourceIcon;resIcon=mxgraph.aws4.direct_connect;" parent="1" vertex="1">
          <mxGeometry x="413.5" y="-420" width="48" height="48" as="geometry" />
        </mxCell>
        <mxCell id="z7foghyVsHtjKupNQYj4-213" value="HQ Maribor" style="points=[[0,0],[0.25,0],[0.5,0],[0.75,0],[1,0],[1,0.25],[1,0.5],[1,0.75],[1,1],[0.75,1],[0.5,1],[0.25,1],[0,1],[0,0.75],[0,0.5],[0,0.25]];outlineConnect=0;gradientColor=none;html=1;whiteSpace=wrap;fontSize=12;fontStyle=0;container=1;pointerEvents=0;collapsible=0;recursiveResize=0;shape=mxgraph.aws4.group;grIcon=mxgraph.aws4.group_corporate_data_center;strokeColor=#5A6C86;fillColor=none;verticalAlign=top;align=left;spacingLeft=30;fontColor=#5A6C86;dashed=0;" parent="1" vertex="1">
          <mxGeometry x="480" y="-549" width="230" height="199" as="geometry" />
        </mxCell>
        <mxCell id="z7foghyVsHtjKupNQYj4-214" value="" style="sketch=0;aspect=fixed;pointerEvents=1;shadow=0;dashed=0;html=1;strokeColor=none;labelPosition=center;verticalLabelPosition=bottom;verticalAlign=top;align=center;fillColor=#00188D;shape=mxgraph.mscae.enterprise.client_application" parent="z7foghyVsHtjKupNQYj4-213" vertex="1">
          <mxGeometry x="17" y="40" width="50" height="32" as="geometry" />
        </mxCell>
        <mxCell id="z7foghyVsHtjKupNQYj4-217" value="" style="sketch=0;aspect=fixed;pointerEvents=1;shadow=0;dashed=0;html=1;strokeColor=none;labelPosition=center;verticalLabelPosition=bottom;verticalAlign=top;align=center;fillColor=#00188D;shape=mxgraph.mscae.enterprise.client_application" parent="z7foghyVsHtjKupNQYj4-213" vertex="1">
          <mxGeometry x="20" y="130" width="50" height="32" as="geometry" />
        </mxCell>
        <mxCell id="z7foghyVsHtjKupNQYj4-223" value="" style="sketch=0;points=[[0,0,0],[0.25,0,0],[0.5,0,0],[0.75,0,0],[1,0,0],[0,1,0],[0.25,1,0],[0.5,1,0],[0.75,1,0],[1,1,0],[0,0.25,0],[0,0.5,0],[0,0.75,0],[1,0.25,0],[1,0.5,0],[1,0.75,0]];outlineConnect=0;fontColor=#232F3E;gradientColor=#4D72F3;gradientDirection=north;fillColor=#3334B9;strokeColor=#ffffff;dashed=0;verticalLabelPosition=bottom;verticalAlign=top;align=center;html=1;fontSize=12;fontStyle=0;aspect=fixed;shape=mxgraph.aws4.resourceIcon;resIcon=mxgraph.aws4.database;" parent="z7foghyVsHtjKupNQYj4-213" vertex="1">
          <mxGeometry x="173" y="122.5" width="47" height="47" as="geometry" />
        </mxCell>
        <mxCell id="z7foghyVsHtjKupNQYj4-224" value="" style="sketch=0;aspect=fixed;pointerEvents=1;shadow=0;dashed=0;html=1;strokeColor=none;labelPosition=center;verticalLabelPosition=bottom;verticalAlign=top;align=center;fillColor=#00188D;shape=mxgraph.mscae.enterprise.workstation_client" parent="z7foghyVsHtjKupNQYj4-213" vertex="1">
          <mxGeometry x="170" y="31" width="50" height="50" as="geometry" />
        </mxCell>
        <mxCell id="z7foghyVsHtjKupNQYj4-222" style="edgeStyle=orthogonalEdgeStyle;rounded=0;orthogonalLoop=1;jettySize=auto;html=1;entryX=0.5;entryY=0;entryDx=0;entryDy=0;entryPerimeter=0;" parent="1" source="z7foghyVsHtjKupNQYj4-218" target="z7foghyVsHtjKupNQYj4-212" edge="1">
          <mxGeometry relative="1" as="geometry">
            <Array as="points">
              <mxPoint x="438" y="-449" />
            </Array>
          </mxGeometry>
        </mxCell>
        <mxCell id="z7foghyVsHtjKupNQYj4-218" value="" style="sketch=0;outlineConnect=0;fontColor=#232F3E;gradientColor=none;fillColor=#4D27AA;strokeColor=none;dashed=0;verticalLabelPosition=bottom;verticalAlign=top;align=center;html=1;fontSize=12;fontStyle=0;aspect=fixed;pointerEvents=1;shape=mxgraph.aws4.router;" parent="1" vertex="1">
          <mxGeometry x="461.5" y="-469" width="39" height="39" as="geometry" />
        </mxCell>
        <mxCell id="z7foghyVsHtjKupNQYj4-187" value="" style="sketch=0;outlineConnect=0;fontColor=#232F3E;gradientColor=none;fillColor=#4D27AA;strokeColor=none;dashed=0;verticalLabelPosition=bottom;verticalAlign=top;align=center;html=1;fontSize=12;fontStyle=0;aspect=fixed;pointerEvents=1;shape=mxgraph.aws4.network_access_control_list;" parent="1" vertex="1">
          <mxGeometry x="375.5000000000002" y="-80" width="28" height="28" as="geometry" />
        </mxCell>
        <mxCell id="z7foghyVsHtjKupNQYj4-371" value="" style="edgeStyle=orthogonalEdgeStyle;rounded=0;orthogonalLoop=1;jettySize=auto;html=1;endArrow=none;" parent="1" source="z7foghyVsHtjKupNQYj4-187" target="z7foghyVsHtjKupNQYj4-368" edge="1">
          <mxGeometry relative="1" as="geometry">
            <mxPoint x="389.5" y="-192" as="sourcePoint" />
            <mxPoint x="389.5" y="-19.999658392165657" as="targetPoint" />
          </mxGeometry>
        </mxCell>
        <mxCell id="z7foghyVsHtjKupNQYj4-373" value="" style="edgeStyle=orthogonalEdgeStyle;rounded=0;orthogonalLoop=1;jettySize=auto;html=1;startArrow=none;endArrow=none;" parent="1" source="z7foghyVsHtjKupNQYj4-368" target="z7foghyVsHtjKupNQYj4-187" edge="1">
          <mxGeometry relative="1" as="geometry">
            <mxPoint x="389.5" y="-145" as="sourcePoint" />
            <mxPoint x="389.5" y="-19.99965839216611" as="targetPoint" />
          </mxGeometry>
        </mxCell>
        <mxCell id="x9_Md-Hb16JmvAt19g20-1" value="" style="sketch=0;points=[[0,0,0],[0.25,0,0],[0.5,0,0],[0.75,0,0],[1,0,0],[0,1,0],[0.25,1,0],[0.5,1,0],[0.75,1,0],[1,1,0],[0,0.25,0],[0,0.5,0],[0,0.75,0],[1,0.25,0],[1,0.5,0],[1,0.75,0]];outlineConnect=0;fontColor=#232F3E;gradientColor=#945DF2;gradientDirection=north;fillColor=#5A30B5;strokeColor=#ffffff;dashed=0;verticalLabelPosition=bottom;verticalAlign=top;align=center;html=1;fontSize=12;fontStyle=0;aspect=fixed;shape=mxgraph.aws4.resourceIcon;resIcon=mxgraph.aws4.direct_connect;" vertex="1" parent="1">
          <mxGeometry x="-620" y="-640" width="78" height="78" as="geometry" />
        </mxCell>
        <mxCell id="x9_Md-Hb16JmvAt19g20-4" value="AWS DIRECT CONNECT" style="text;html=1;align=center;verticalAlign=middle;resizable=0;points=[];autosize=1;strokeColor=none;fillColor=none;" vertex="1" parent="1">
          <mxGeometry x="-670" y="-549" width="160" height="30" as="geometry" />
        </mxCell>
        <mxCell id="x9_Md-Hb16JmvAt19g20-5" value="" style="sketch=0;outlineConnect=0;fontColor=#232F3E;gradientColor=none;fillColor=#4D27AA;strokeColor=none;dashed=0;verticalLabelPosition=bottom;verticalAlign=top;align=center;html=1;fontSize=12;fontStyle=0;aspect=fixed;pointerEvents=1;shape=mxgraph.aws4.customer_gateway;" vertex="1" parent="1">
          <mxGeometry x="-478" y="-639" width="78" height="78" as="geometry" />
        </mxCell>
        <mxCell id="x9_Md-Hb16JmvAt19g20-6" value="ROUTER" style="text;html=1;align=center;verticalAlign=middle;resizable=0;points=[];autosize=1;strokeColor=none;fillColor=none;" vertex="1" parent="1">
          <mxGeometry x="-478" y="-549" width="70" height="30" as="geometry" />
        </mxCell>
        <mxCell id="x9_Md-Hb16JmvAt19g20-7" value="VPN GATEWAY" style="sketch=0;outlineConnect=0;fontColor=#232F3E;gradientColor=none;fillColor=#4D27AA;strokeColor=none;dashed=0;verticalLabelPosition=bottom;verticalAlign=top;align=center;html=1;fontSize=12;fontStyle=0;aspect=fixed;pointerEvents=1;shape=mxgraph.aws4.vpn_gateway;" vertex="1" parent="1">
          <mxGeometry x="-360" y="-640" width="78" height="78" as="geometry" />
        </mxCell>
        <mxCell id="x9_Md-Hb16JmvAt19g20-8" value="AWS ELASTIC LOAD BALANCING" style="sketch=0;points=[[0,0,0],[0.25,0,0],[0.5,0,0],[0.75,0,0],[1,0,0],[0,1,0],[0.25,1,0],[0.5,1,0],[0.75,1,0],[1,1,0],[0,0.25,0],[0,0.5,0],[0,0.75,0],[1,0.25,0],[1,0.5,0],[1,0.75,0]];outlineConnect=0;fontColor=#232F3E;gradientColor=#945DF2;gradientDirection=north;fillColor=#5A30B5;strokeColor=#ffffff;dashed=0;verticalLabelPosition=bottom;verticalAlign=top;align=center;html=1;fontSize=12;fontStyle=0;aspect=fixed;shape=mxgraph.aws4.resourceIcon;resIcon=mxgraph.aws4.elastic_load_balancing;" vertex="1" parent="1">
          <mxGeometry x="-628" y="-496" width="78" height="78" as="geometry" />
        </mxCell>
        <mxCell id="x9_Md-Hb16JmvAt19g20-9" value="NACL" style="sketch=0;outlineConnect=0;fontColor=#232F3E;gradientColor=none;fillColor=#4D27AA;strokeColor=none;dashed=0;verticalLabelPosition=bottom;verticalAlign=top;align=center;html=1;fontSize=12;fontStyle=0;aspect=fixed;pointerEvents=1;shape=mxgraph.aws4.network_access_control_list;" vertex="1" parent="1">
          <mxGeometry x="-470" y="-497" width="78" height="78" as="geometry" />
        </mxCell>
        <mxCell id="x9_Md-Hb16JmvAt19g20-10" value="INTERNET GATEWAY" style="sketch=0;outlineConnect=0;fontColor=#232F3E;gradientColor=none;fillColor=#4D27AA;strokeColor=none;dashed=0;verticalLabelPosition=bottom;verticalAlign=top;align=center;html=1;fontSize=12;fontStyle=0;aspect=fixed;pointerEvents=1;shape=mxgraph.aws4.internet_gateway;" vertex="1" parent="1">
          <mxGeometry x="-360" y="-488.5" width="78" height="78" as="geometry" />
        </mxCell>
        <mxCell id="x9_Md-Hb16JmvAt19g20-11" value="FIREWALL" style="sketch=0;points=[[0,0,0],[0.25,0,0],[0.5,0,0],[0.75,0,0],[1,0,0],[0,1,0],[0.25,1,0],[0.5,1,0],[0.75,1,0],[1,1,0],[0,0.25,0],[0,0.5,0],[0,0.75,0],[1,0.25,0],[1,0.5,0],[1,0.75,0]];outlineConnect=0;fontColor=#232F3E;gradientColor=#945DF2;gradientDirection=north;fillColor=#5A30B5;strokeColor=#ffffff;dashed=0;verticalLabelPosition=bottom;verticalAlign=top;align=center;html=1;fontSize=12;fontStyle=0;aspect=fixed;shape=mxgraph.aws4.resourceIcon;resIcon=mxgraph.aws4.route_53;" vertex="1" parent="1">
          <mxGeometry x="-629" y="-369" width="78" height="78" as="geometry" />
        </mxCell>
        <mxCell id="x9_Md-Hb16JmvAt19g20-12" value="HPC" style="sketch=0;outlineConnect=0;fontColor=#232F3E;gradientColor=none;fillColor=#D45B07;strokeColor=none;dashed=0;verticalLabelPosition=bottom;verticalAlign=top;align=center;html=1;fontSize=12;fontStyle=0;aspect=fixed;pointerEvents=1;shape=mxgraph.aws4.ec2_c6gn_instance;" vertex="1" parent="1">
          <mxGeometry x="-462" y="-350" width="48" height="48" as="geometry" />
        </mxCell>
        <mxCell id="x9_Md-Hb16JmvAt19g20-13" value="DB" style="sketch=0;points=[[0,0,0],[0.25,0,0],[0.5,0,0],[0.75,0,0],[1,0,0],[0,1,0],[0.25,1,0],[0.5,1,0],[0.75,1,0],[1,1,0],[0,0.25,0],[0,0.5,0],[0,0.75,0],[1,0.25,0],[1,0.5,0],[1,0.75,0]];outlineConnect=0;fontColor=#232F3E;gradientColor=#4D72F3;gradientDirection=north;fillColor=#3334B9;strokeColor=#ffffff;dashed=0;verticalLabelPosition=bottom;verticalAlign=top;align=center;html=1;fontSize=12;fontStyle=0;aspect=fixed;shape=mxgraph.aws4.resourceIcon;resIcon=mxgraph.aws4.aurora;" vertex="1" parent="1">
          <mxGeometry x="-360" y="-360" width="78" height="78" as="geometry" />
        </mxCell>
        <mxCell id="x9_Md-Hb16JmvAt19g20-14" value="ELASTICACHE" style="sketch=0;points=[[0,0,0],[0.25,0,0],[0.5,0,0],[0.75,0,0],[1,0,0],[0,1,0],[0.25,1,0],[0.5,1,0],[0.75,1,0],[1,1,0],[0,0.25,0],[0,0.5,0],[0,0.75,0],[1,0.25,0],[1,0.5,0],[1,0.75,0]];outlineConnect=0;fontColor=#232F3E;gradientColor=#4D72F3;gradientDirection=north;fillColor=#3334B9;strokeColor=#ffffff;dashed=0;verticalLabelPosition=bottom;verticalAlign=top;align=center;html=1;fontSize=12;fontStyle=0;aspect=fixed;shape=mxgraph.aws4.resourceIcon;resIcon=mxgraph.aws4.elasticache;" vertex="1" parent="1">
          <mxGeometry x="-216" y="-359" width="78" height="78" as="geometry" />
        </mxCell>
      </root>
    </mxGraphModel>
  </diagram>
</mxfile>
